<?xml version="1.0" standalone="no"?>
<!DOCTYPE svg PUBLIC "-//W3C//DTD SVG 20010904//EN"
 "http://www.w3.org/TR/2001/REC-SVG-20010904/DTD/svg10.dtd">
<svg version="1.0" xmlns="http://www.w3.org/2000/svg"
 width="900.000000pt" height="900.000000pt" viewBox="0 0 900.000000 900.000000"
 preserveAspectRatio="xMidYMid meet">
<metadata>
Created by potrace 1.14, written by Peter Selinger 2001-2017
</metadata>
<g transform="translate(0.000000,900.000000) scale(0.100000,-0.100000)"
fill="#000000" stroke="none">
<path d="M4715 8220 c-20 -22 -20 -24 -30 -105 -3 -27 -8 -57 -10 -65 -2 -8
-7 -40 -10 -70 -3 -30 -8 -62 -10 -70 -2 -8 -7 -37 -11 -65 -3 -27 -7 -59 -9
-70 -10 -65 -15 -105 -20 -145 -3 -25 -7 -52 -10 -60 -2 -8 -7 -39 -10 -69 -4
-30 -8 -61 -10 -70 -1 -9 -6 -38 -9 -66 -4 -27 -9 -63 -11 -80 -10 -71 -15
-103 -21 -149 -3 -27 -8 -58 -10 -70 -7 -28 -11 -55 -18 -124 -4 -31 -9 -66
-11 -77 -8 -44 -19 -140 -17 -147 1 -5 -1 -8 -6 -8 -4 0 -7 -17 -8 -38 0 -20
-3 -55 -7 -77 -3 -22 -11 -74 -17 -115 -6 -41 -12 -86 -15 -100 -2 -14 -7 -50
-11 -80 -4 -30 -8 -64 -10 -75 -1 -11 -5 -38 -8 -60 -6 -44 -35 -246 -41 -285
-30 -203 -38 -258 -37 -273 0 -9 -2 -16 -6 -13 -4 2 -7 -10 -7 -27 -1 -40 -10
-114 -35 -286 -11 -75 -30 -201 -41 -281 -11 -80 -22 -158 -25 -175 -2 -16 -6
-43 -8 -60 -3 -16 -7 -47 -10 -67 -10 -63 -16 -105 -22 -160 -4 -29 -9 -57
-11 -61 -3 -5 -6 -27 -8 -50 -3 -41 -6 -65 -25 -192 -5 -33 -12 -82 -16 -110
-3 -27 -8 -58 -10 -69 -2 -10 -6 -44 -10 -75 -3 -31 -8 -64 -9 -73 -2 -9 -11
-68 -20 -130 -9 -62 -18 -126 -20 -143 -15 -98 -25 -169 -31 -216 -3 -30 -9
-58 -12 -63 -3 -6 -7 -28 -8 -50 -2 -38 -20 -177 -28 -223 -3 -12 -7 -41 -11
-65 l-7 -45 -86 57 c-115 76 -317 178 -385 195 -15 4 -24 12 -20 18 3 6 1 7
-5 3 -6 -4 -49 4 -94 18 -96 29 -211 54 -283 62 -27 3 -61 7 -75 10 -35 6
-256 6 -310 -1 -190 -23 -352 -67 -499 -137 -177 -84 -359 -240 -467 -398
-202 -298 -276 -685 -197 -1034 8 -37 16 -74 17 -82 1 -7 5 -17 9 -20 4 -4 7
-14 7 -22 0 -8 6 -28 14 -45 8 -18 26 -58 40 -91 14 -32 23 -63 19 -69 -3 -5
-2 -7 4 -4 13 8 46 -50 37 -65 -4 -6 -3 -8 3 -5 6 4 29 -20 52 -53 23 -32 55
-73 72 -89 17 -17 28 -35 24 -41 -3 -6 0 -7 9 -4 16 6 23 -10 9 -19 -5 -2 -3
-2 4 -1 15 4 89 -64 85 -78 -1 -5 2 -7 8 -3 5 3 10 1 10 -5 0 -6 4 -9 9 -6 11
7 33 -19 24 -28 -4 -4 -1 -5 7 -1 9 3 29 -7 48 -25 18 -16 36 -29 40 -30 4 0
14 -6 22 -13 8 -7 20 -15 25 -17 6 -3 9 -9 7 -13 -1 -5 3 -7 10 -4 15 5 88
-29 88 -41 0 -4 -6 -14 -13 -22 -10 -12 -9 -12 6 -1 14 11 20 11 35 0 15 -12
15 -11 -1 8 l-19 21 39 -18 c21 -10 55 -26 75 -35 21 -10 35 -22 32 -27 -4 -7
0 -7 12 0 21 10 47 5 39 -8 -3 -4 4 -6 15 -3 11 3 20 1 20 -4 0 -5 7 -10 15
-10 40 0 124 -27 128 -42 4 -14 5 -14 6 1 1 14 5 15 31 7 16 -6 27 -15 24 -20
-3 -5 0 -9 5 -9 6 0 11 4 11 10 0 5 13 8 30 7 16 -1 30 -6 30 -10 0 -5 5 -5
11 -1 7 4 9 0 5 -14 -8 -23 8 -39 20 -21 4 8 3 9 -4 5 -14 -9 -15 4 -2 24 6 9
10 11 10 3 0 -7 7 -10 17 -6 11 4 14 3 9 -5 -4 -7 -2 -12 3 -12 6 0 11 4 11 8
0 5 7 9 15 9 8 0 12 -4 9 -9 -3 -4 9 -5 25 -2 20 4 37 1 48 -7 9 -8 14 -9 11
-4 -4 7 26 10 87 10 51 0 91 -3 88 -7 -2 -5 1 -8 6 -8 6 0 11 4 11 8 0 5 7 9
15 9 8 0 12 -4 9 -9 -3 -4 0 -8 5 -8 6 0 11 5 11 12 0 6 9 3 20 -7 11 -10 20
-14 21 -9 1 5 5 -2 10 -16 l8 -25 -2 25 c-1 14 -7 25 -14 25 -6 0 -15 4 -20 9
-4 5 4 7 19 4 15 -3 29 0 32 6 2 6 5 3 5 -6 1 -9 6 -20 12 -24 7 -4 9 0 5 13
-4 14 -2 20 9 20 8 0 15 -4 15 -9 0 -4 5 -8 11 -8 5 0 8 4 5 9 -7 10 60 25 74
16 6 -3 10 -1 10 4 0 6 8 11 18 11 14 0 15 -2 2 -10 -10 -7 -11 -10 -2 -10 7
0 15 7 18 15 4 10 13 13 25 10 11 -4 19 -2 19 5 0 7 7 10 15 6 8 -3 15 -1 15
5 0 6 6 9 14 6 7 -3 19 0 25 6 9 9 14 8 21 -3 8 -13 10 -12 10 3 0 10 5 15 10
12 6 -4 18 -1 26 6 12 10 17 8 29 -7 8 -10 15 -25 15 -31 0 -7 5 -13 11 -13 5
0 2 14 -8 30 -15 27 -16 32 -3 40 9 6 20 5 30 -3 8 -6 12 -7 8 -3 -4 5 0 15
10 22 23 18 30 17 35 -3 3 -13 5 -11 6 6 1 20 3 22 16 11 13 -11 13 -15 3 -21
-7 -5 -8 -9 -2 -9 18 0 24 12 14 30 -12 22 11 35 29 17 9 -9 11 -7 6 8 -6 17
-4 17 14 -4 12 -13 25 -20 29 -16 4 4 1 10 -6 12 -6 3 -9 10 -6 15 4 7 2 8 -4
4 -7 -4 -12 -2 -12 3 0 6 4 11 10 11 5 0 44 20 85 45 69 41 76 43 71 22 -3
-12 -3 -16 0 -9 3 6 9 10 14 7 4 -3 6 4 3 16 -4 15 0 22 16 26 11 3 21 10 21
15 0 6 12 2 28 -7 l27 -18 -18 21 c-18 20 -18 21 10 38 15 10 31 23 35 29 5 6
8 4 8 -5 0 -11 4 -10 12 4 32 57 170 148 152 102 -3 -8 -1 -17 4 -20 5 -3 9 5
8 17 -1 15 -7 22 -21 21 -17 0 -13 8 22 43 24 24 50 43 58 43 7 0 17 5 21 12
5 8 2 9 -10 5 -11 -4 -15 -3 -10 4 3 6 18 8 33 5 21 -5 23 -4 9 4 -15 9 -16
14 -5 30 6 11 20 20 29 20 10 0 18 5 18 11 0 5 -5 7 -12 3 -7 -5 -8 -3 -4 5 5
7 14 10 21 7 8 -3 11 2 8 13 -3 12 5 26 23 40 14 11 23 21 19 21 -4 0 -2 6 4
13 6 8 8 17 4 20 -3 4 -1 8 5 8 26 3 31 4 37 11 4 4 -5 5 -20 2 -19 -3 -25 -1
-19 8 4 7 9 24 9 38 5 72 18 149 25 145 5 -3 7 -14 5 -25 -2 -12 0 -18 5 -15
10 6 7 29 -7 46 -14 18 -5 81 11 72 7 -5 7 -2 -1 8 -8 9 -9 20 -3 29 5 8 7 23
4 32 -4 14 0 16 23 12 15 -3 25 -2 21 1 -3 4 -14 8 -25 10 -10 1 -17 7 -16 13
1 5 4 22 7 37 3 15 13 37 23 49 10 11 11 15 3 9 -21 -19 -32 -16 -20 7 6 10
10 23 9 27 -5 29 2 53 14 47 8 -6 8 -3 -1 9 -16 19 -8 39 13 30 8 -3 15 0 15
6 0 6 -3 10 -7 10 -19 -3 -34 2 -29 9 3 5 8 31 11 58 4 27 8 54 9 59 0 6 9 16
19 23 19 15 23 32 6 32 -5 0 -8 -4 -4 -9 3 -5 0 -13 -6 -17 -8 -5 -9 11 -4 57
8 68 12 94 15 94 2 0 4 16 6 35 7 77 12 115 13 115 3 0 12 74 13 102 0 13 5
20 11 16 6 -4 6 0 0 11 -10 18 -5 79 6 72 3 -2 6 19 5 47 0 29 2 56 5 62 3 5
5 21 5 35 1 15 6 24 14 22 8 -1 11 2 8 7 -4 5 -3 11 1 14 5 2 2 2 -5 1 -9 -3
-11 9 -7 44 11 102 18 137 29 144 8 6 8 8 0 8 -8 0 -10 11 -5 33 5 18 7 40 5
50 -2 14 2 16 19 11 22 -6 22 -6 2 9 -17 14 -18 18 -7 37 8 12 9 19 3 15 -6
-3 -11 -1 -11 4 0 6 3 11 8 11 4 0 7 16 6 35 -1 19 1 35 6 35 4 0 5 12 2 26
-3 19 -1 25 7 20 6 -4 11 -2 11 3 0 6 -4 11 -10 11 -5 0 -10 7 -10 16 0 12 7
15 25 12 13 -3 22 -1 19 3 -3 5 -12 9 -19 9 -10 0 -14 9 -13 25 2 18 7 24 18
20 9 -3 7 1 -5 11 -20 16 -20 16 2 11 16 -4 20 -1 16 11 -5 11 -3 13 7 7 9 -5
11 -4 6 4 -6 9 -11 9 -22 0 -11 -9 -14 -8 -14 4 0 8 6 18 13 20 9 4 9 6 0 6
-9 1 -10 8 -4 24 9 22 11 32 11 43 0 4 11 -1 24 -10 16 -10 27 -12 31 -6 4 6
3 9 -2 8 -4 -1 -18 3 -29 10 -12 6 -25 8 -29 4 -4 -4 -5 2 -2 13 3 11 9 43 12
70 9 76 15 96 25 90 5 -3 12 -1 15 5 4 6 1 9 -6 8 -18 -4 -24 33 -7 43 10 7
10 9 0 9 -9 0 -10 5 -4 18 5 9 8 27 7 39 -1 13 2 23 6 23 5 0 6 7 2 16 -3 9 0
20 8 25 8 5 9 9 3 9 -6 0 -10 8 -9 18 9 84 19 132 29 132 7 0 8 3 1 8 -9 6
-12 27 -5 35 1 1 3 19 4 40 1 21 8 42 16 47 9 6 10 10 3 10 -10 0 -11 23 -2
60 2 8 11 21 19 27 13 11 12 12 -4 6 -13 -4 -17 -2 -14 8 6 19 39 19 63 0 20
-16 20 -16 1 6 -10 12 -21 22 -25 21 -27 -3 -32 4 -28 38 3 20 11 41 19 45 9
6 10 9 1 9 -8 0 -11 11 -8 33 3 17 7 56 10 86 3 30 11 61 18 70 10 12 9 13 -2
6 -8 -5 -12 -4 -9 1 4 5 9 33 12 63 3 30 11 58 18 63 9 5 10 8 1 8 -7 0 -10
10 -6 28 3 15 6 37 6 49 1 12 4 20 8 17 4 -2 6 8 5 23 -2 17 3 33 13 39 13 10
13 15 2 27 -8 11 -11 30 -7 54 4 21 9 61 11 88 3 28 8 57 11 65 5 15 16 116
17 158 1 14 6 21 14 18 9 -4 10 0 1 20 -10 20 -8 27 8 40 15 12 15 14 3 11
-13 -4 -15 -1 -12 14 3 11 10 16 17 12 6 -4 5 0 -2 9 -9 12 -10 23 -4 35 5 10
8 33 7 51 -1 17 2 32 6 32 4 0 5 10 2 23 -3 12 -2 19 2 15 5 -5 15 2 23 13
l15 22 19 -24 c14 -16 18 -18 14 -6 -6 18 18 25 29 7 8 -13 35 -13 35 1 0 5
-5 7 -10 4 -6 -4 -17 -1 -25 5 -8 7 -21 10 -30 6 -16 -6 -39 27 -33 46 7 21
47 18 63 -4 8 -13 15 -18 15 -12 0 18 -38 47 -51 38 -8 -5 -10 -3 -4 6 5 7 -3
5 -17 -6 -21 -15 -24 -23 -16 -38 7 -14 6 -22 -7 -35 -16 -15 -17 -14 -10 8 5
16 4 21 -4 17 -8 -5 -8 0 -2 17 6 14 7 28 3 33 -4 4 -1 4 6 0 10 -6 11 -1 7
21 -3 15 -2 22 1 15 3 -6 11 -9 16 -6 7 5 8 2 3 -6 -5 -8 -3 -11 6 -8 15 6 69
-21 69 -34 0 -4 6 -8 13 -8 6 0 21 -7 31 -15 16 -12 17 -18 8 -27 -9 -9 -12
-9 -12 0 0 7 -5 12 -10 12 -6 0 -5 -8 2 -20 11 -16 14 -17 21 -5 12 22 33 18
51 -7 9 -12 16 -19 16 -14 0 5 9 1 20 -9 11 -10 17 -22 14 -26 -3 -5 1 -6 9
-3 18 6 79 -44 70 -58 -3 -7 -1 -8 5 -4 6 3 25 -7 42 -24 17 -16 35 -30 40
-30 9 0 14 -15 11 -33 -1 -5 3 -5 9 -2 13 8 52 -34 44 -47 -3 -4 -2 -7 3 -6
11 3 53 -25 53 -35 0 -4 -5 -5 -12 -1 -7 4 -8 3 -4 -4 4 -6 13 -9 20 -6 7 3
20 -6 30 -20 9 -14 30 -39 46 -56 17 -17 27 -36 24 -42 -4 -6 -3 -8 4 -4 6 3
31 -21 56 -56 26 -35 55 -74 66 -86 21 -24 27 -48 11 -37 -5 3 -12 1 -16 -4
-3 -6 3 -8 14 -6 13 2 27 -8 44 -33 49 -75 68 -112 62 -122 -4 -6 -2 -9 3 -8
6 2 10 -1 10 -6 0 -5 4 -12 9 -15 23 -16 150 -283 169 -356 1 -5 9 -29 18 -52
8 -24 12 -43 8 -43 -4 0 -2 -4 4 -8 10 -6 55 -171 68 -247 9 -50 16 -89 21
-115 20 -101 27 -474 12 -625 -7 -68 -36 -244 -51 -310 -17 -74 -80 -270 -106
-330 -5 -11 -20 -47 -35 -80 -14 -33 -26 -61 -25 -63 0 -2 -63 -121 -101 -189
-32 -56 -102 -167 -117 -185 -19 -22 -19 -66 0 -84 32 -32 79 -23 162 31 12 8
26 12 31 8 4 -5 5 -3 2 3 -3 6 8 19 26 29 18 10 42 27 54 37 12 11 26 17 33
13 6 -3 9 -2 8 3 -3 9 78 82 91 82 3 0 33 25 66 55 33 31 65 53 73 50 7 -3 10
0 7 6 -8 13 24 51 37 43 4 -3 7 -1 6 4 -2 5 13 25 33 45 29 28 39 34 49 24 10
-9 11 -9 6 1 -4 7 0 25 9 39 14 20 19 23 26 12 6 -10 9 -7 9 12 0 25 14 38 49
45 23 4 34 21 20 29 -7 5 -10 4 -6 -2 4 -6 0 -13 -8 -17 -18 -7 -19 3 -1 26 7
10 16 15 19 11 4 -3 7 -1 7 5 0 7 7 12 15 12 8 0 15 5 15 11 0 5 -5 7 -12 3
-15 -10 11 28 51 71 17 19 28 35 24 35 -16 0 20 26 60 43 39 16 27 18 -18 2
-17 -6 -16 -3 5 15 14 12 19 19 12 15 -8 -4 -2 11 13 34 15 22 34 41 41 41 8
0 14 5 14 11 0 5 -5 7 -10 4 -6 -4 -5 5 2 19 6 14 16 26 21 26 6 0 5 -5 -1
-13 -7 -8 -6 -17 3 -30 11 -16 13 -16 19 -2 3 9 2 13 -3 10 -5 -3 -12 -1 -15
4 -4 5 -2 12 3 16 6 3 8 12 4 20 -3 9 1 15 10 15 10 0 13 -7 10 -19 -3 -10 -1
-21 4 -24 15 -9 7 44 -8 54 -12 8 -11 11 4 20 9 6 15 14 12 20 -4 5 -1 9 5 9
6 0 9 4 5 9 -3 5 1 16 9 24 8 8 12 18 8 22 -4 5 0 6 9 3 9 -4 22 -2 30 4 11 8
11 9 -3 4 -10 -3 -20 -1 -23 3 -6 11 23 24 50 23 16 -1 17 0 2 4 -9 3 -15 9
-12 14 3 5 1 11 -4 14 -10 7 45 139 60 144 5 2 7 7 4 12 -7 12 16 73 34 88 9
8 10 11 4 7 -7 -3 -13 -1 -13 4 0 6 5 11 11 11 5 0 8 4 4 9 -3 5 -1 12 5 16 6
4 8 11 5 16 -4 5 -2 9 3 9 6 0 9 6 9 13 -2 28 17 93 32 105 12 10 12 12 1 6
-13 -7 -13 -5 -1 9 7 9 10 17 6 17 -4 0 -1 8 6 17 10 11 10 14 2 9 -7 -4 -13
-2 -13 3 0 6 8 11 18 11 13 0 14 2 3 9 -11 7 -11 9 0 14 11 4 11 6 1 6 -9 1
-10 6 -3 19 5 9 11 21 13 27 1 5 6 9 9 8 4 -1 15 7 25 18 16 18 16 19 1 13 -9
-3 -17 -10 -17 -16 0 -5 -4 -7 -9 -4 -5 4 -8 14 -6 24 2 9 4 20 4 24 1 4 9 5
19 2 15 -5 15 -4 1 5 -19 12 -14 65 5 54 7 -4 6 -1 -1 9 -7 8 -10 18 -7 21 4
4 7 17 8 29 1 13 7 22 12 21 6 -1 11 4 11 12 0 8 -4 12 -9 9 -4 -3 -8 2 -8 11
0 10 5 13 12 9 7 -5 8 -3 2 7 -14 23 -14 41 1 35 8 -3 17 -1 20 5 4 5 1 8 -7
7 -9 -2 -13 10 -14 40 -1 34 2 42 14 37 11 -4 12 -2 4 7 -15 19 -8 344 7 340
7 -1 10 2 6 8 -3 6 -10 8 -15 5 -4 -3 -8 16 -8 42 0 27 -1 50 -2 53 -8 24 -6
40 3 40 8 0 8 3 -1 9 -8 4 -11 19 -8 34 2 15 -1 28 -7 31 -9 3 -8 7 3 15 8 5
18 7 24 4 5 -3 6 -1 2 5 -4 6 -14 8 -23 5 -13 -5 -15 -1 -11 20 3 15 2 27 -2
27 -8 0 -10 9 -13 62 -1 21 -5 38 -8 38 -12 0 -16 59 -5 71 8 9 8 10 -1 5 -6
-3 -14 -2 -18 4 -3 5 0 10 7 10 9 0 9 3 -2 10 -8 5 -11 10 -6 10 5 0 4 6 -1
13 -10 12 -22 51 -30 92 -2 11 -6 27 -10 35 -16 40 -54 147 -56 160 -1 8 -5
17 -8 20 -7 7 -49 98 -49 107 0 5 -9 19 -20 33 -11 14 -20 32 -20 41 0 9 -7
20 -16 23 -9 4 -14 13 -10 21 3 8 1 15 -3 15 -14 0 -52 70 -45 82 4 6 2 8 -3
5 -11 -7 -46 39 -46 60 0 7 -4 10 -9 7 -4 -3 -8 -2 -8 3 0 4 -10 20 -23 34
-12 15 -33 41 -47 60 -30 41 -196 206 -264 263 -27 22 -67 57 -88 77 -21 20
-38 34 -38 32 0 -3 -17 9 -37 27 -21 18 -57 48 -81 68 -89 75 -132 119 -124
127 4 5 2 5 -4 2 -15 -9 -146 131 -138 146 4 7 4 9 -1 5 -9 -9 -22 4 -85 86
-27 37 -47 72 -44 78 4 6 2 8 -3 5 -11 -7 -132 170 -125 181 2 3 0 8 -5 11
-16 12 -44 62 -38 70 2 5 -2 12 -11 15 -8 3 -13 10 -10 15 4 5 2 11 -3 13 -5
1 -11 10 -13 18 -2 8 -9 21 -16 28 -7 8 -10 24 -7 36 4 13 3 17 -2 8 -7 -9
-14 -2 -26 22 -13 27 -13 34 -3 30 8 -3 17 0 22 7 4 7 3 10 -4 6 -18 -12 -44
4 -39 24 3 11 1 17 -3 14 -11 -7 -32 54 -23 69 3 6 3 8 -2 4 -9 -9 -54 94 -57
130 -1 12 -5 22 -9 22 -3 0 -12 21 -19 48 -7 26 -16 52 -19 57 -8 15 -13 37
-15 67 0 14 -4 24 -7 22 -9 -5 -41 114 -34 126 3 6 2 10 -3 10 -5 0 -12 16
-15 36 -7 41 -32 74 -57 74 -9 0 -20 3 -24 7 -3 4 -14 8 -24 9 -19 3 -27 5
-317 69 -110 25 -212 45 -226 45 -14 0 -34 -9 -44 -20z m285 -3140 c0 -5 -4
-10 -10 -10 -5 0 -10 5 -10 10 0 6 5 10 10 10 6 0 10 -4 10 -10z m2020 -1684
c0 -2 -7 -9 -15 -16 -13 -11 -14 -10 -9 4 5 14 24 23 24 12z"/>
<path d="M3962 7787 c-2 -17 -9 -72 -17 -122 -8 -50 -18 -116 -21 -146 l-6
-54 259 -85 c142 -47 262 -85 267 -85 5 0 10 7 11 15 1 8 6 42 10 75 4 33 9
69 11 80 7 45 12 83 18 130 l7 51 -36 13 c-34 12 -49 10 -51 -7 0 -4 -4 -34
-8 -67 -18 -144 -23 -165 -34 -165 -4 0 -36 10 -72 23 -70 24 -67 20 -55 102
18 128 19 122 -20 135 -20 7 -38 10 -40 8 -1 -1 -6 -24 -9 -50 -3 -27 -9 -69
-12 -95 -3 -27 -7 -49 -8 -49 -3 -4 -131 38 -138 44 -4 4 -3 39 3 77 5 39 12
89 15 113 2 23 5 48 7 54 1 6 -16 17 -38 23 l-41 13 -2 -31z"/>
<path d="M5547 7679 c7 -7 15 -10 18 -7 3 3 -2 9 -12 12 -14 6 -15 5 -6 -5z"/>
<path d="M5700 7406 c0 -2 8 -10 18 -17 15 -13 16 -12 3 4 -13 16 -21 21 -21
13z"/>
<path d="M3896 7318 c-3 -17 -6 -34 -6 -39 0 -4 78 -33 173 -64 94 -31 176
-60 180 -64 6 -6 -35 -19 -118 -37 -5 -1 -39 -10 -75 -19 -68 -18 -71 -19
-134 -34 -52 -13 -64 -27 -69 -81 l-4 -45 131 -43 c72 -24 138 -45 146 -47 8
-2 69 -22 135 -44 66 -22 121 -38 122 -37 1 1 4 18 6 39 l4 37 -189 62 c-104
34 -185 64 -181 68 9 7 377 103 396 103 7 0 13 18 15 40 1 21 4 44 5 49 1 6
-101 45 -228 87 -337 112 -302 104 -309 69z"/>
<path d="M3826 6815 c-3 -9 -6 -27 -6 -39 0 -20 19 -29 193 -86 219 -73 247
-91 247 -159 0 -80 -30 -109 -102 -98 -18 3 -107 30 -198 61 -171 57 -180 58
-180 9 0 -12 -3 -28 -6 -36 -4 -12 35 -28 180 -77 214 -70 268 -80 314 -56 94
49 104 250 16 327 -32 28 -73 45 -254 104 -96 32 -180 60 -186 62 -6 2 -14 -3
-18 -12z"/>
<path d="M3759 6383 c0 -10 -2 -31 -4 -48 -2 -16 -7 -50 -10 -75 -5 -40 -11
-76 -21 -134 -2 -10 -6 -42 -9 -70 l-6 -52 37 -12 c21 -6 40 -10 41 -8 4 4 7
21 18 90 3 22 7 42 10 44 3 4 329 -100 370 -118 11 -5 35 -12 53 -15 31 -6 32
-6 33 29 1 20 2 43 3 52 1 13 -40 30 -179 76 -99 33 -187 61 -195 63 -8 2 -28
8 -43 14 -28 11 -29 12 -22 74 4 34 9 65 11 69 5 8 -21 23 -58 32 -22 5 -28 3
-29 -11z"/>
<path d="M5127 5794 c3 -8 9 -14 15 -14 5 0 6 5 3 10 -3 6 -2 10 4 10 5 0 12
-5 14 -10 3 -6 4 -5 3 2 -1 7 -12 13 -23 14 -14 1 -20 -3 -16 -12z"/>
<path d="M3675 5767 c-2 -12 -9 -58 -16 -102 -6 -44 -13 -89 -15 -100 -2 -11
-7 -45 -10 -75 l-6 -55 259 -84 c142 -46 262 -85 267 -85 4 -1 10 8 11 19 13
82 16 104 21 145 3 25 7 56 10 70 2 14 7 46 10 72 5 46 5 46 -31 58 -20 7 -39
10 -41 7 -3 -3 -11 -47 -19 -98 -8 -52 -16 -104 -18 -116 -2 -12 -6 -25 -9
-28 -3 -3 -34 4 -70 15 -61 19 -86 39 -73 60 5 9 18 108 19 149 1 20 -6 26
-33 33 -18 5 -35 7 -37 5 -2 -2 -6 -21 -8 -43 -7 -67 -18 -139 -22 -146 -4 -7
-123 29 -137 42 -4 4 -3 36 2 71 6 35 13 82 16 104 3 22 8 45 10 51 5 16 -7
28 -43 41 -29 10 -32 10 -37 -10z"/>
<path d="M5256 5751 c-3 -5 5 -16 19 -25 21 -14 24 -14 19 -1 -4 8 -13 15 -21
15 -8 0 -11 5 -8 10 3 6 4 10 1 10 -3 0 -7 -4 -10 -9z"/>
<path d="M5109 5740 c-1 -8 -1 -18 0 -22 0 -5 -3 -8 -9 -8 -5 0 -10 -5 -10
-12 0 -6 8 -4 19 6 13 12 20 14 23 5 2 -7 15 -13 29 -15 13 -1 18 0 12 2 -7 3
-15 5 -19 4 -4 -1 -15 11 -25 27 -12 18 -19 22 -20 13z"/>
<path d="M5164 5728 c3 -15 26 -23 26 -8 0 6 -4 9 -9 6 -5 -4 -12 -1 -14 4 -3
6 -4 5 -3 -2z"/>
<path d="M5236 5713 c-6 -14 -5 -15 5 -6 7 7 10 15 7 18 -3 3 -9 -2 -12 -12z"/>
<path d="M5195 5700 c-3 -6 1 -7 9 -4 18 7 21 14 7 14 -6 0 -13 -4 -16 -10z"/>
<path d="M5310 5700 c0 -5 5 -10 10 -10 6 0 10 5 10 10 0 6 -4 10 -10 10 -5 0
-10 -4 -10 -10z"/>
<path d="M5127 5670 c10 -11 19 -20 21 -20 1 0 -2 9 -8 20 -6 11 -15 20 -20
20 -6 0 -2 -9 7 -20z"/>
<path d="M5223 5679 c9 -6 15 -14 12 -19 -3 -5 -1 -11 4 -14 5 -4 8 0 7 6 -3
21 -16 38 -29 38 -7 0 -4 -5 6 -11z"/>
<path d="M5078 5673 c7 -3 16 -2 19 1 4 3 -2 6 -13 5 -11 0 -14 -3 -6 -6z"/>
<path d="M5157 5669 c7 -7 15 -10 18 -7 3 3 -2 9 -12 12 -14 6 -15 5 -6 -5z"/>
<path d="M5311 5667 c-8 -10 -7 -14 2 -14 8 0 14 6 14 14 0 7 -1 13 -2 13 -2
0 -8 -6 -14 -13z"/>
<path d="M5110 5664 c0 -5 7 -18 15 -28 8 -11 15 -16 15 -10 0 5 -7 18 -15 28
-8 11 -15 16 -15 10z"/>
<path d="M5267 5659 c7 -7 15 -10 18 -7 3 3 -2 9 -12 12 -14 6 -15 5 -6 -5z"/>
<path d="M5395 5650 c-4 -6 -10 -8 -15 -5 -5 3 -11 2 -14 -3 -2 -4 6 -8 18 -8
12 0 23 6 23 13 0 16 -4 16 -12 3z"/>
<path d="M5092 5636 c7 -8 15 -12 17 -11 5 6 -10 25 -20 25 -5 0 -4 -6 3 -14z"/>
<path d="M5173 5635 c0 -8 4 -12 9 -9 4 3 8 9 8 15 0 5 -4 9 -8 9 -5 0 -9 -7
-9 -15z"/>
<path d="M7110 5646 c0 -2 7 -7 16 -10 8 -3 12 -2 9 4 -6 10 -25 14 -25 6z"/>
<path d="M5075 5620 c-3 -5 -1 -10 4 -10 6 0 11 5 11 10 0 6 -2 10 -4 10 -3 0
-8 -4 -11 -10z"/>
<path d="M5279 5613 c-13 -16 -12 -17 4 -4 16 13 21 21 13 21 -2 0 -10 -8 -17
-17z"/>
<path d="M5190 5601 c0 -6 4 -12 8 -15 5 -3 9 1 9 9 0 8 -4 15 -9 15 -4 0 -8
-4 -8 -9z"/>
<path d="M5230 5606 c0 -2 7 -7 16 -10 8 -3 12 -2 9 4 -6 10 -25 14 -25 6z"/>
<path d="M5076 5587 c3 -10 9 -15 12 -12 3 3 0 11 -7 18 -10 9 -11 8 -5 -6z"/>
<path d="M5433 5573 c0 -9 4 -10 14 -2 7 6 13 12 13 14 0 1 -6 2 -13 2 -8 0
-14 -6 -14 -14z"/>
<path d="M5101 5564 c0 -11 3 -14 6 -6 3 7 2 16 -1 19 -3 4 -6 -2 -5 -13z"/>
<path d="M5290 5560 c0 -5 5 -10 11 -10 5 0 7 5 4 10 -3 6 -8 10 -11 10 -2 0
-4 -4 -4 -10z"/>
<path d="M5496 5553 c-6 -14 -5 -15 5 -6 7 7 10 15 7 18 -3 3 -9 -2 -12 -12z"/>
<path d="M5088 5533 c-10 -2 -18 -9 -18 -15 0 -6 3 -8 7 -5 3 4 11 3 17 -3 8
-6 12 -3 12 11 0 10 0 18 -1 18 0 -1 -8 -3 -17 -6z"/>
<path d="M5455 5520 c-3 -5 -1 -10 4 -10 6 0 11 5 11 10 0 6 -2 10 -4 10 -3 0
-8 -4 -11 -10z"/>
<path d="M5084 5442 c23 -26 23 -26 23 -7 0 8 -3 13 -5 10 -3 -3 -12 1 -21 7
-10 8 -9 4 3 -10z"/>
<path d="M5559 5433 c-13 -16 -12 -17 4 -4 9 7 17 15 17 17 0 8 -8 3 -21 -13z"/>
<path d="M7195 5440 c-3 -5 -1 -10 4 -10 6 0 11 5 11 10 0 6 -2 10 -4 10 -3 0
-8 -4 -11 -10z"/>
<path d="M5069 5414 c7 -14 7 -24 0 -31 -6 -6 -4 -10 6 -10 8 0 13 3 10 5 -3
3 1 12 7 21 7 9 8 13 4 9 -5 -4 -15 0 -23 10 -13 15 -13 15 -4 -4z"/>
<path d="M5115 5400 c-3 -5 -1 -10 4 -10 6 0 11 5 11 10 0 6 -2 10 -4 10 -3 0
-8 -4 -11 -10z"/>
<path d="M5566 5402 c-3 -5 1 -9 9 -9 8 0 12 4 9 9 -3 4 -7 8 -9 8 -2 0 -6 -4
-9 -8z"/>
<path d="M5614 5396 c1 -8 5 -18 8 -22 4 -3 5 1 4 10 -1 8 -5 18 -8 22 -4 3
-5 -1 -4 -10z"/>
<path d="M7202 5324 c10 -10 20 -16 22 -13 3 3 -5 11 -17 18 -21 13 -21 12 -5
-5z"/>
<path d="M5036 5321 c-3 -5 2 -15 12 -22 15 -12 16 -12 5 2 -7 9 -10 19 -6 22
3 4 4 7 0 7 -3 0 -8 -4 -11 -9z"/>
<path d="M5737 5275 c-4 -8 -3 -16 1 -19 4 -3 9 4 9 15 2 23 -3 25 -10 4z"/>
<path d="M3680 5266 c-78 -33 -115 -104 -108 -201 12 -149 183 -285 358 -285
145 0 224 104 184 241 -8 26 -21 52 -29 59 -24 20 -18 30 19 30 25 0 35 5 39
20 3 13 -1 24 -11 29 -26 13 -253 83 -257 79 -4 -4 -10 -34 -21 -113 -3 -27
-8 -58 -10 -67 -2 -11 8 -20 28 -27 45 -16 46 -15 53 27 12 73 15 75 56 48 54
-37 78 -106 55 -160 -19 -46 -41 -59 -99 -59 -115 0 -252 73 -277 148 -24 72
14 145 75 145 31 0 32 1 31 40 -1 21 -5 42 -8 45 -11 12 -52 12 -78 1z"/>
<path d="M5036 5258 c3 -5 10 -6 15 -3 13 9 11 12 -6 12 -8 0 -12 -4 -9 -9z"/>
<path d="M5770 5260 c0 -5 5 -10 11 -10 5 0 7 5 4 10 -3 6 -8 10 -11 10 -2 0
-4 -4 -4 -10z"/>
<path d="M5027 5239 c7 -7 15 -10 18 -7 3 3 -2 9 -12 12 -14 6 -15 5 -6 -5z"/>
<path d="M5010 5221 c0 -6 4 -13 10 -16 6 -3 7 1 4 9 -7 18 -14 21 -14 7z"/>
<path d="M5065 5220 c-3 -6 1 -7 9 -4 18 7 21 14 7 14 -6 0 -13 -4 -16 -10z"/>
<path d="M5134 5218 c-4 -7 -4 -10 1 -6 4 4 15 2 24 -5 14 -11 14 -10 2 6 -16
20 -18 21 -27 5z"/>
<path d="M5789 5203 c-13 -16 -12 -17 4 -4 9 7 17 15 17 17 0 8 -8 3 -21 -13z"/>
<path d="M5107 5199 c7 -7 15 -10 18 -7 3 3 -2 9 -12 12 -14 6 -15 5 -6 -5z"/>
<path d="M5037 5177 c4 -6 0 -8 -9 -5 -9 4 -15 0 -15 -8 0 -8 3 -12 5 -9 3 3
15 -3 26 -12 20 -17 20 -17 7 0 -10 12 -11 20 -2 30 8 10 7 14 -4 14 -8 0 -11
-5 -8 -10z"/>
<path d="M5100 5126 c0 -2 8 -10 18 -17 15 -13 16 -12 3 4 -13 16 -21 21 -21
13z"/>
<path d="M5150 5126 c0 -2 7 -7 16 -10 8 -3 12 -2 9 4 -6 10 -25 14 -25 6z"/>
<path d="M7255 5100 c-3 -5 -1 -10 4 -10 6 0 11 5 11 10 0 6 -2 10 -4 10 -3 0
-8 -4 -11 -10z"/>
<path d="M7250 5060 c0 -5 5 -10 11 -10 5 0 7 5 4 10 -3 6 -8 10 -11 10 -2 0
-4 -4 -4 -10z"/>
<path d="M7296 5058 c3 -5 10 -6 15 -3 13 9 11 12 -6 12 -8 0 -12 -4 -9 -9z"/>
<path d="M5013 4997 c0 -12 1 -16 4 -9 3 6 9 10 13 7 5 -3 12 0 16 7 4 7 4 10
-1 6 -4 -4 -13 -4 -19 2 -8 6 -12 2 -13 -13z"/>
<path d="M4995 4962 c3 -3 1 -10 -5 -16 -6 -8 -3 -12 8 -12 10 0 18 8 18 16 0
9 -6 17 -13 17 -7 0 -11 -3 -8 -5z"/>
<path d="M7393 4913 c0 -9 4 -10 14 -2 7 6 13 12 13 14 0 1 -6 2 -13 2 -8 0
-14 -6 -14 -14z"/>
<path d="M4970 4886 c0 -2 7 -7 16 -10 8 -3 12 -2 9 4 -6 10 -25 14 -25 6z"/>
<path d="M7325 4880 c-3 -6 1 -7 9 -4 18 7 21 14 7 14 -6 0 -13 -4 -16 -10z"/>
<path d="M5013 4833 c0 -9 4 -10 14 -2 7 6 13 12 13 14 0 1 -6 2 -13 2 -8 0
-14 -6 -14 -14z"/>
<path d="M7315 4819 c-3 -4 2 -6 10 -5 21 3 28 13 10 13 -9 0 -18 -4 -20 -8z"/>
<path d="M5040 4800 c-9 -6 -10 -10 -3 -10 6 0 15 5 18 10 8 12 4 12 -15 0z"/>
<path d="M5075 4791 c-3 -5 -2 -12 3 -15 5 -3 9 1 9 9 0 17 -3 19 -12 6z"/>
<path d="M4950 4740 c0 -4 8 -14 18 -23 15 -14 19 -15 19 -2 0 8 -5 11 -10 8
-6 -4 -8 0 -5 9 4 9 0 15 -8 15 -8 0 -14 -3 -14 -7z"/>
<path d="M4996 4738 c3 -5 10 -6 15 -3 13 9 11 12 -6 12 -8 0 -12 -4 -9 -9z"/>
<path d="M5070 4720 c0 -5 5 -10 11 -10 5 0 7 5 4 10 -3 6 -8 10 -11 10 -2 0
-4 -4 -4 -10z"/>
<path d="M7350 4721 c0 -6 4 -13 10 -16 6 -3 7 1 4 9 -7 18 -14 21 -14 7z"/>
<path d="M5033 4705 c0 -8 4 -12 9 -9 5 3 6 10 3 15 -9 13 -12 11 -12 -6z"/>
<path d="M3543 4692 c-13 -2 -24 -6 -24 -10 -1 -4 -3 -20 -5 -37 -2 -16 -6
-40 -9 -52 -4 -19 15 -36 147 -128 84 -58 160 -111 168 -118 8 -7 53 -38 99
-70 89 -61 101 -62 101 -5 0 21 -12 35 -60 69 -51 36 -59 45 -55 68 2 14 7 46
10 71 10 74 16 104 21 109 2 2 31 5 64 6 33 1 62 4 64 6 3 2 7 26 10 52 l6 47
-257 -3 c-142 -1 -268 -3 -280 -5z m303 -129 c-2 -16 -8 -49 -11 -75 -3 -27
-10 -48 -15 -48 -4 0 -35 20 -69 45 -34 25 -64 45 -69 45 -4 1 -23 14 -42 30
l-34 30 123 0 123 0 -6 -27z"/>
<path d="M4951 4687 c2 -2 11 -8 20 -15 12 -9 16 -9 16 1 0 7 -9 14 -20 14
-11 1 -18 1 -16 0z"/>
<path d="M7313 4675 c0 -8 4 -12 9 -9 5 3 6 10 3 15 -9 13 -12 11 -12 -6z"/>
<path d="M5055 4671 c-3 -5 -2 -12 3 -15 5 -3 9 1 9 9 0 17 -3 19 -12 6z"/>
<path d="M7320 4640 c-9 -6 -10 -10 -3 -10 6 0 15 5 18 10 8 12 4 12 -15 0z"/>
<path d="M4935 4620 c3 -5 8 -10 11 -10 2 0 4 5 4 10 0 6 -5 10 -11 10 -5 0
-7 -4 -4 -10z"/>
<path d="M4954 4585 c1 -8 8 -21 16 -28 12 -10 12 -9 2 4 -6 9 -9 18 -6 21 3
3 1 9 -4 12 -6 3 -9 -1 -8 -9z"/>
<path d="M4991 4573 c7 -12 15 -20 18 -17 3 2 -3 12 -13 22 -17 16 -18 16 -5
-5z"/>
<path d="M7330 4579 c0 -5 5 -7 10 -4 6 3 10 8 10 11 0 2 -4 4 -10 4 -5 0 -10
-5 -10 -11z"/>
<path d="M7286 4558 c3 -5 9 -7 12 -4 3 3 12 0 21 -6 13 -10 14 -10 4 2 -15
16 -46 23 -37 8z"/>
<path d="M7293 4527 c0 -8 6 -14 14 -14 9 0 10 4 2 14 -6 7 -12 13 -14 13 -1
0 -2 -6 -2 -13z"/>
<path d="M7302 4484 c10 -10 20 -16 22 -13 3 3 -5 11 -17 18 -21 13 -21 12 -5
-5z"/>
<path d="M7375 4480 c-3 -5 -1 -10 4 -10 6 0 11 5 11 10 0 6 -2 10 -4 10 -3 0
-8 -4 -11 -10z"/>
<path d="M7299 4448 c15 -21 31 -23 31 -6 0 6 -3 8 -7 5 -3 -4 -13 -1 -22 6
-14 11 -14 10 -2 -5z"/>
<path d="M4911 4407 c-13 -21 -12 -21 5 -5 10 10 16 20 13 22 -3 3 -11 -5 -18
-17z"/>
<path d="M7353 4365 c0 -8 4 -12 9 -9 5 3 6 10 3 15 -9 13 -12 11 -12 -6z"/>
<path d="M4916 4341 c-3 -5 2 -15 12 -22 15 -13 16 -12 4 3 -10 13 -10 17 0
21 9 4 9 6 1 6 -6 1 -14 -3 -17 -8z"/>
<path d="M4959 4348 c-5 -18 -6 -38 -1 -34 7 8 12 36 6 36 -2 0 -4 -1 -5 -2z"/>
<path d="M5016 4338 c3 -5 10 -6 15 -3 13 9 11 12 -6 12 -8 0 -12 -4 -9 -9z"/>
<path d="M7311 4333 c7 -12 15 -20 18 -17 3 2 -3 12 -13 22 -17 16 -18 16 -5
-5z"/>
<path d="M3469 4328 c-6 -26 -10 -52 -14 -98 -4 -49 -2 -57 17 -71 13 -8 75
-51 138 -94 63 -43 126 -87 139 -97 l24 -18 -64 1 c-35 0 -116 1 -181 0 l-116
-1 -8 -62 c-4 -35 -8 -70 -8 -78 -1 -11 70 -39 259 -101 143 -48 263 -83 267
-80 4 4 9 21 10 40 l3 33 -210 69 c-115 39 -215 71 -222 73 -47 9 8 12 217 11
195 -2 240 1 241 12 1 7 2 19 3 26 1 12 -33 37 -279 205 -123 83 -182 127
-150 110 23 -13 448 -148 452 -145 2 3 6 25 9 50 l6 45 -244 80 c-287 94 -288
94 -289 90z"/>
<path d="M7271 4327 c2 -1 13 -9 24 -17 19 -14 19 -14 6 3 -7 9 -18 17 -24 17
-6 0 -8 -1 -6 -3z"/>
<path d="M4930 4296 c0 -2 8 -10 18 -17 15 -13 16 -12 3 4 -13 16 -21 21 -21
13z"/>
<path d="M7296 4273 c-6 -14 -5 -15 5 -6 7 7 10 15 7 18 -3 3 -9 -2 -12 -12z"/>
<path d="M7355 4260 c-3 -5 -1 -10 4 -10 6 0 11 5 11 10 0 6 -2 10 -4 10 -3 0
-8 -4 -11 -10z"/>
<path d="M4892 4250 c6 -19 55 -21 71 -2 10 13 9 14 -3 7 -20 -13 -53 -13 -63
0 -5 6 -7 4 -5 -5z"/>
<path d="M7299 4233 c-13 -16 -12 -17 4 -4 16 13 21 21 13 21 -2 0 -10 -8 -17
-17z"/>
<path d="M7293 4193 c0 -9 4 -10 14 -2 7 6 13 12 13 14 0 1 -6 2 -13 2 -8 0
-14 -6 -14 -14z"/>
<path d="M4894 4159 c0 -13 3 -15 13 -7 7 6 13 12 13 13 0 2 -6 5 -13 8 -7 3
-13 -3 -13 -14z"/>
<path d="M7316 4162 c-3 -5 1 -9 9 -9 8 0 12 4 9 9 -3 4 -7 8 -9 8 -2 0 -6 -4
-9 -8z"/>
<path d="M7370 4166 c0 -2 7 -7 16 -10 8 -3 12 -2 9 4 -6 10 -25 14 -25 6z"/>
<path d="M4920 4140 c-9 -6 -10 -10 -3 -10 6 0 15 5 18 10 8 12 4 12 -15 0z"/>
<path d="M4880 4100 c-9 -6 -10 -10 -3 -10 6 0 15 5 18 10 8 12 4 12 -15 0z"/>
<path d="M4974 4096 c1 -8 5 -18 8 -22 4 -3 5 1 4 10 -1 8 -5 18 -8 22 -4 3
-5 -1 -4 -10z"/>
<path d="M7258 4088 c8 -9 11 -21 8 -26 -3 -5 0 -9 7 -9 7 0 13 8 13 18 0 10
-2 16 -5 14 -2 -3 -11 1 -20 8 -14 10 -14 10 -3 -5z"/>
<path d="M4899 4073 c-13 -17 -13 -17 6 -3 11 8 22 16 24 17 2 2 0 3 -6 3 -6
0 -17 -8 -24 -17z"/>
<path d="M7330 4059 c0 -5 5 -7 10 -4 6 3 10 8 10 11 0 2 -4 4 -10 4 -5 0 -10
-5 -10 -11z"/>
<path d="M4996 4038 c3 -5 10 -6 15 -3 13 9 11 12 -6 12 -8 0 -12 -4 -9 -9z"/>
<path d="M4911 4013 c7 -12 15 -20 18 -17 3 2 -3 12 -13 22 -17 16 -18 16 -5
-5z"/>
<path d="M4880 4006 c0 -2 8 -10 18 -17 15 -13 16 -12 3 4 -13 16 -21 21 -21
13z"/>
<path d="M7290 3999 c0 -5 5 -7 10 -4 6 3 10 8 10 11 0 2 -4 4 -10 4 -5 0 -10
-5 -10 -11z"/>
<path d="M7218 3968 c-5 -11 -2 -15 10 -13 9 1 24 -3 32 -9 13 -10 13 -9 1 6
-7 10 -17 16 -21 13 -5 -3 -10 0 -12 7 -3 8 -6 6 -10 -4z"/>
<path d="M4855 3961 c-3 -5 -2 -12 3 -15 5 -3 9 1 9 9 0 17 -3 19 -12 6z"/>
<path d="M4896 3953 c-6 -14 -5 -15 5 -6 7 7 10 15 7 18 -3 3 -9 -2 -12 -12z"/>
<path d="M7221 3937 c2 -1 13 -10 25 -20 17 -14 21 -14 21 -2 0 8 -4 12 -8 9
-4 -2 -10 0 -14 6 -3 5 -11 10 -17 10 -6 0 -9 -1 -7 -3z"/>
<path d="M7226 3897 c3 -10 9 -15 12 -12 3 3 0 11 -7 18 -10 9 -11 8 -5 -6z"/>
<path d="M4890 3896 c0 -2 8 -10 18 -17 15 -13 16 -12 3 4 -13 16 -21 21 -21
13z"/>
<path d="M7250 3880 c0 -5 5 -10 11 -10 5 0 7 5 4 10 -3 6 -8 10 -11 10 -2 0
-4 -4 -4 -10z"/>
<path d="M4837 3853 c-12 -12 -7 -31 9 -37 14 -5 15 -4 5 8 -7 8 -10 20 -6 26
7 11 2 14 -8 3z"/>
<path d="M7316 3847 c3 -10 9 -15 12 -12 3 3 0 11 -7 18 -10 9 -11 8 -5 -6z"/>
<path d="M4880 3840 c-8 -5 0 -7 18 -7 17 1 29 4 26 6 -8 9 -31 9 -44 1z"/>
<path d="M7215 3839 c-3 -4 2 -6 10 -5 21 3 28 13 10 13 -9 0 -18 -4 -20 -8z"/>
<path d="M7267 3819 c7 -7 15 -10 18 -7 3 3 -2 9 -12 12 -14 6 -15 5 -6 -5z"/>
<path d="M7212 3800 c0 -14 2 -19 5 -12 2 6 2 18 0 25 -3 6 -5 1 -5 -13z"/>
<path d="M7235 3811 c-3 -5 -2 -12 3 -15 5 -3 9 1 9 9 0 17 -3 19 -12 6z"/>
<path d="M4866 3778 c3 -5 10 -6 15 -3 13 9 11 12 -6 12 -8 0 -12 -4 -9 -9z"/>
<path d="M4926 3782 c-3 -5 1 -9 9 -9 8 0 12 4 9 9 -3 4 -7 8 -9 8 -2 0 -6 -4
-9 -8z"/>
<path d="M7235 3770 c-4 -6 -10 -8 -14 -6 -4 3 -8 -1 -8 -9 0 -13 4 -12 19 2
18 16 22 23 14 23 -3 0 -8 -5 -11 -10z"/>
<path d="M7155 3751 c-3 -5 0 -13 6 -17 8 -5 9 -3 4 6 -6 10 -4 12 9 7 10 -4
15 -3 11 3 -8 13 -22 13 -30 1z"/>
<path d="M4820 3731 c0 -6 4 -13 10 -16 6 -3 7 1 4 9 -7 18 -14 21 -14 7z"/>
<path d="M4854 3726 c1 -8 5 -18 8 -22 4 -3 5 1 4 10 -1 8 -5 18 -8 22 -4 3
-5 -1 -4 -10z"/>
<path d="M4886 3718 c3 -5 10 -6 15 -3 13 9 11 12 -6 12 -8 0 -12 -4 -9 -9z"/>
<path d="M4935 3720 c-3 -5 -1 -10 4 -10 6 0 11 5 11 10 0 6 -2 10 -4 10 -3 0
-8 -4 -11 -10z"/>
<path d="M7197 3712 c-15 -16 -15 -19 -2 -19 8 0 13 3 10 5 -3 3 0 11 6 19 17
20 5 16 -14 -5z"/>
<path d="M7140 3686 c0 -2 9 -6 20 -9 11 -3 18 -1 14 4 -5 9 -34 13 -34 5z"/>
<path d="M3369 3653 c0 -16 -2 -37 -4 -48 -4 -18 20 -28 223 -94 338 -111 312
-104 313 -78 0 12 3 34 5 49 l5 27 -262 85 c-144 48 -266 86 -271 86 -4 0 -8
-12 -9 -27z"/>
<path d="M7246 3658 c3 -5 10 -6 15 -3 13 9 11 12 -6 12 -8 0 -12 -4 -9 -9z"/>
<path d="M7150 3650 c-8 -5 -12 -12 -9 -15 4 -3 12 1 19 10 14 17 11 19 -10 5z"/>
<path d="M4833 3632 c2 -12 6 -24 10 -28 3 -4 4 4 2 16 -2 12 -7 25 -10 28 -3
3 -4 -4 -2 -16z"/>
<path d="M4890 3619 c0 -5 5 -7 10 -4 6 3 10 8 10 11 0 2 -4 4 -10 4 -5 0 -10
-5 -10 -11z"/>
<path d="M7120 3610 c-23 -7 -23 -8 -3 -9 12 -1 25 4 28 9 3 6 5 10 3 9 -2 -1
-14 -5 -28 -9z"/>
<path d="M7160 3606 c0 -2 8 -10 18 -17 15 -13 16 -12 3 4 -13 16 -21 21 -21
13z"/>
<path d="M4836 3582 c-3 -5 1 -9 9 -9 8 0 12 4 9 9 -3 4 -7 8 -9 8 -2 0 -6 -4
-9 -8z"/>
<path d="M4890 3579 c0 -5 5 -7 10 -4 6 3 10 8 10 11 0 2 -4 4 -10 4 -5 0 -10
-5 -10 -11z"/>
<path d="M7210 3579 c0 -5 5 -7 10 -4 6 3 10 8 10 11 0 2 -4 4 -10 4 -5 0 -10
-5 -10 -11z"/>
<path d="M7109 3529 c-8 -16 -8 -20 0 -14 7 4 20 1 29 -6 14 -12 14 -10 -1 8
-14 16 -15 22 -5 26 9 4 9 6 1 6 -7 1 -17 -9 -24 -20z"/>
<path d="M7154 3534 c1 -8 4 -15 7 -16 2 -2 3 -1 2 1 -2 2 2 9 7 16 7 8 5 12
-4 12 -8 0 -13 -6 -12 -13z"/>
<path d="M4855 3520 c3 -5 8 -10 11 -10 2 0 4 5 4 10 0 6 -5 10 -11 10 -5 0
-7 -4 -4 -10z"/>
<path d="M7070 3525 c0 -5 5 -17 10 -25 5 -8 10 -10 10 -5 0 6 -5 17 -10 25
-5 8 -10 11 -10 5z"/>
<path d="M4886 3502 c-3 -5 1 -9 9 -9 8 0 12 4 9 9 -3 4 -7 8 -9 8 -2 0 -6 -4
-9 -8z"/>
<path d="M4850 3496 c0 -2 8 -10 18 -17 15 -13 16 -12 3 4 -13 16 -21 21 -21
13z"/>
<path d="M7066 3481 c4 -17 3 -21 -6 -16 -9 6 -11 4 -5 -4 5 -9 11 -9 17 -3 7
7 6 16 -1 29 -11 16 -11 15 -5 -6z"/>
<path d="M7266 3482 c-3 -5 1 -9 9 -9 8 0 12 4 9 9 -3 4 -7 8 -9 8 -2 0 -6 -4
-9 -8z"/>
<path d="M4829 3463 c-13 -16 -12 -17 4 -4 16 13 21 21 13 21 -2 0 -10 -8 -17
-17z"/>
<path d="M7036 3435 c-9 -26 -7 -32 5 -12 6 10 9 21 6 23 -2 3 -7 -2 -11 -11z"/>
<path d="M7105 3440 c-3 -6 1 -7 9 -4 18 7 21 14 7 14 -6 0 -13 -4 -16 -10z"/>
<path d="M7139 3433 c-13 -16 -12 -17 4 -4 16 13 21 21 13 21 -2 0 -10 -8 -17
-17z"/>
<path d="M7074 3419 c-12 -20 12 -31 27 -12 13 17 13 17 -5 3 -18 -14 -19 -13
-13 3 7 19 2 23 -9 6z"/>
<path d="M7040 3396 c0 -2 7 -7 16 -10 8 -3 12 -2 9 4 -6 10 -25 14 -25 6z"/>
<path d="M4775 3379 c-4 -5 2 -6 12 -2 16 6 17 5 3 -13 -14 -19 -14 -19 8 0
12 11 22 20 22 20 0 7 -41 3 -45 -5z"/>
<path d="M7155 3380 c3 -5 8 -10 11 -10 2 0 4 5 4 10 0 6 -5 10 -11 10 -5 0
-7 -4 -4 -10z"/>
<path d="M7055 3361 c-3 -5 -2 -12 3 -15 5 -3 9 1 9 9 0 17 -3 19 -12 6z"/>
<path d="M4806 3322 c-3 -5 1 -9 9 -9 8 0 12 4 9 9 -3 4 -7 8 -9 8 -2 0 -6 -4
-9 -8z"/>
<path d="M7000 3320 c-8 -5 -10 -10 -5 -10 6 0 17 5 25 10 8 5 11 10 5 10 -5
0 -17 -5 -25 -10z"/>
<path d="M7046 3318 c3 -4 9 -8 15 -8 5 0 9 4 9 8 0 5 -7 9 -15 9 -8 0 -12 -4
-9 -9z"/>
<path d="M7086 3318 c3 -5 10 -6 15 -3 13 9 11 12 -6 12 -8 0 -12 -4 -9 -9z"/>
<path d="M7139 3328 c-5 -18 -6 -38 -1 -34 7 8 12 36 6 36 -2 0 -4 -1 -5 -2z"/>
<path d="M4850 3300 c0 -5 5 -10 11 -10 5 0 7 5 4 10 -3 6 -8 10 -11 10 -2 0
-4 -4 -4 -10z"/>
<path d="M6964 3299 c-5 -8 -3 -9 6 -4 10 6 12 4 7 -8 -3 -10 -2 -17 3 -17 13
0 13 27 1 35 -5 3 -13 0 -17 -6z"/>
<path d="M7062 3284 c10 -10 20 -16 22 -13 3 3 -5 11 -17 18 -21 13 -21 12 -5
-5z"/>
<path d="M4791 3287 c2 -1 13 -9 24 -17 19 -14 19 -14 6 3 -7 9 -18 17 -24 17
-6 0 -8 -1 -6 -3z"/>
<path d="M4855 3260 c-3 -5 -1 -10 4 -10 6 0 11 5 11 10 0 6 -2 10 -4 10 -3 0
-8 -4 -11 -10z"/>
<path d="M6955 3249 c-4 -6 -5 -12 -2 -15 2 -3 7 2 10 11 7 17 1 20 -8 4z"/>
<path d="M6980 3256 c0 -2 7 -7 16 -10 8 -3 12 -2 9 4 -6 10 -25 14 -25 6z"/>
<path d="M4760 3220 c-9 -6 -10 -10 -3 -10 6 0 15 5 18 10 8 12 4 12 -15 0z"/>
<path d="M6996 3221 c-3 -5 2 -15 12 -22 15 -13 16 -12 4 3 -10 13 -10 17 0
21 9 4 9 6 1 6 -6 1 -14 -3 -17 -8z"/>
<path d="M4793 3192 c2 -12 6 -24 10 -28 3 -4 4 4 2 16 -2 12 -7 25 -10 28 -3
3 -4 -4 -2 -16z"/>
<path d="M4839 3193 c-13 -16 -12 -17 4 -4 16 13 21 21 13 21 -2 0 -10 -8 -17
-17z"/>
<path d="M7036 3198 c3 -5 10 -6 15 -3 13 9 11 12 -6 12 -8 0 -12 -4 -9 -9z"/>
<path d="M6950 3196 c0 -2 9 -6 20 -9 11 -3 18 -1 14 4 -5 9 -34 13 -34 5z"/>
<path d="M4750 3186 c0 -2 7 -7 16 -10 8 -3 12 -2 9 4 -6 10 -25 14 -25 6z"/>
<path d="M7013 3166 c0 -15 22 -15 34 0 4 5 4 6 -1 2 -5 -4 -14 -3 -21 2 -8 7
-12 5 -12 -4z"/>
<path d="M4819 3153 c-13 -16 -12 -17 4 -4 16 13 21 21 13 21 -2 0 -10 -8 -17
-17z"/>
<path d="M4855 3151 c-3 -5 -2 -12 3 -15 5 -3 9 1 9 9 0 17 -3 19 -12 6z"/>
<path d="M6950 3141 c0 -6 4 -12 8 -15 5 -3 9 1 9 9 0 8 -4 15 -9 15 -4 0 -8
-4 -8 -9z"/>
<path d="M4771 3127 c-8 -10 -7 -14 2 -14 8 0 14 6 14 14 0 7 -1 13 -2 13 -2
0 -8 -6 -14 -13z"/>
<path d="M7029 3123 c-13 -16 -12 -17 4 -4 16 13 21 21 13 21 -2 0 -10 -8 -17
-17z"/>
<path d="M7110 3136 c0 -2 8 -10 18 -17 15 -13 16 -12 3 4 -13 16 -21 21 -21
13z"/>
<path d="M6890 3122 c0 -4 10 -9 22 -9 18 -2 20 0 8 7 -18 12 -30 13 -30 2z"/>
<path d="M4746 3097 c3 -10 9 -15 12 -12 3 3 0 11 -7 18 -10 9 -11 8 -5 -6z"/>
<path d="M6846 3094 c-8 -21 -8 -24 5 -24 5 0 8 4 5 9 -4 5 -1 11 6 13 8 3 9
6 1 11 -6 4 -14 0 -17 -9z"/>
<path d="M6880 3095 c0 -5 5 -17 10 -25 5 -8 10 -10 10 -5 0 6 -5 17 -10 25
-5 8 -10 11 -10 5z"/>
<path d="M6936 3073 c-6 -14 -5 -15 5 -6 7 7 10 15 7 18 -3 3 -9 -2 -12 -12z"/>
<path d="M4793 3065 c0 -8 4 -12 9 -9 5 3 6 10 3 15 -9 13 -12 11 -12 -6z"/>
<path d="M4730 3040 c0 -5 5 -10 10 -10 6 0 10 5 10 10 0 6 -4 10 -10 10 -5 0
-10 -4 -10 -10z"/>
<path d="M6925 3039 c-3 -4 2 -6 10 -5 21 3 28 13 10 13 -9 0 -18 -4 -20 -8z"/>
<path d="M6870 3020 c0 -5 5 -10 10 -10 6 0 10 5 10 10 0 6 -4 10 -10 10 -5 0
-10 -4 -10 -10z"/>
<path d="M6830 3011 c0 -7 -4 -9 -10 -6 -5 3 -10 1 -10 -4 0 -6 4 -11 9 -11
13 0 25 20 17 27 -3 4 -6 1 -6 -6z"/>
<path d="M6775 3000 c-3 -5 -1 -10 4 -10 6 0 11 5 11 10 0 6 -2 10 -4 10 -3 0
-8 -4 -11 -10z"/>
<path d="M6873 2985 c0 -8 4 -15 9 -15 4 0 8 4 8 9 0 6 -4 12 -8 15 -5 3 -9
-1 -9 -9z"/>
<path d="M4769 2963 c-13 -16 -12 -17 4 -4 16 13 21 21 13 21 -2 0 -10 -8 -17
-17z"/>
<path d="M6790 2971 c0 -6 4 -12 8 -15 5 -3 9 1 9 9 0 8 -4 15 -9 15 -4 0 -8
-4 -8 -9z"/>
<path d="M6760 2955 c-7 -9 -11 -17 -9 -20 3 -2 10 5 17 15 14 24 10 26 -8 5z"/>
<path d="M6775 2939 c-4 -6 -4 -13 -1 -16 3 -4 6 -1 6 6 0 7 5 9 12 5 7 -4 8
-3 4 4 -9 15 -13 15 -21 1z"/>
<path d="M6814 2939 c-4 -7 -3 -9 4 -5 5 3 13 0 15 -6 4 -9 6 -10 6 -1 1 17
-16 25 -25 12z"/>
<path d="M4784 2918 l-19 -23 23 19 c12 11 22 21 22 23 0 8 -8 2 -26 -19z"/>
<path d="M6855 2929 c-4 -6 -5 -12 -2 -15 2 -3 7 2 10 11 7 17 1 20 -8 4z"/>
<path d="M6730 2920 c8 -5 20 -10 25 -10 6 0 3 5 -5 10 -8 5 -19 10 -25 10 -5
0 -3 -5 5 -10z"/>
<path d="M6955 2921 c-3 -5 -2 -12 3 -15 5 -3 9 1 9 9 0 17 -3 19 -12 6z"/>
<path d="M6790 2909 c0 -5 -6 -7 -12 -3 -7 4 -9 3 -5 -1 13 -15 36 -14 30 1
-6 17 -13 18 -13 3z"/>
<path d="M4806 2898 c3 -5 10 -6 15 -3 13 9 11 12 -6 12 -8 0 -12 -4 -9 -9z"/>
<path d="M6710 2900 c0 -5 5 -10 10 -10 6 0 10 5 10 10 0 6 -4 10 -10 10 -5 0
-10 -4 -10 -10z"/>
<path d="M4735 2890 c-4 -6 -10 -8 -15 -5 -4 3 -7 -2 -6 -10 1 -8 4 -16 7 -17
2 -2 3 -1 1 1 -1 2 5 13 15 23 9 10 13 18 10 18 -3 0 -9 -5 -12 -10z"/>
<path d="M6740 2880 c0 -5 7 -7 15 -4 8 4 15 8 15 10 0 2 -7 4 -15 4 -8 0 -15
-4 -15 -10z"/>
<path d="M6829 2877 c6 -8 7 -18 3 -22 -4 -5 -1 -5 6 -1 10 6 10 11 1 22 -6 8
-14 14 -16 14 -3 0 0 -6 6 -13z"/>
<path d="M4751 2867 c-8 -10 -7 -14 2 -14 8 0 14 6 14 14 0 7 -1 13 -2 13 -2
0 -8 -6 -14 -13z"/>
<path d="M6710 2860 c0 -5 5 -10 10 -10 6 0 10 5 10 10 0 6 -4 10 -10 10 -5 0
-10 -4 -10 -10z"/>
<path d="M6764 2859 c-3 -6 0 -17 8 -25 13 -13 15 -13 15 0 0 8 -5 12 -10 9
-6 -4 -8 0 -4 10 7 19 2 23 -9 6z"/>
<path d="M6899 2868 c-5 -18 -6 -38 -1 -34 7 8 12 36 6 36 -2 0 -4 -1 -5 -2z"/>
<path d="M6680 2840 c0 -5 5 -10 10 -10 6 0 10 5 10 10 0 6 -4 10 -10 10 -5 0
-10 -4 -10 -10z"/>
<path d="M6739 2828 c-4 -15 -6 -50 -3 -40 3 6 10 10 14 7 5 -3 12 -1 15 5 4
6 1 9 -7 8 -7 -2 -12 3 -10 10 2 10 -6 19 -9 10z"/>
<path d="M4743 2802 c10 -10 14 -22 10 -27 -5 -4 -2 -5 5 -1 11 6 10 12 -4 27
-9 10 -19 19 -22 19 -3 0 2 -8 11 -18z"/>
<path d="M4710 2803 c0 -6 8 -17 18 -24 16 -13 16 -13 2 6 -8 11 -16 22 -17
24 -2 2 -3 0 -3 -6z"/>
<path d="M4815 2800 c3 -5 8 -10 11 -10 2 0 4 5 4 10 0 6 -5 10 -11 10 -5 0
-7 -4 -4 -10z"/>
<path d="M6670 2800 c0 -5 5 -10 11 -10 5 0 7 5 4 10 -3 6 -8 10 -11 10 -2 0
-4 -4 -4 -10z"/>
<path d="M6705 2799 c-4 -6 -5 -12 -2 -15 2 -3 7 2 10 11 7 17 1 20 -8 4z"/>
<path d="M6810 2799 c0 -5 5 -7 10 -4 6 3 10 8 10 11 0 2 -4 4 -10 4 -5 0 -10
-5 -10 -11z"/>
<path d="M6615 2780 c3 -5 8 -10 11 -10 2 0 4 5 4 10 0 6 -5 10 -11 10 -5 0
-7 -4 -4 -10z"/>
<path d="M6640 2786 c0 -2 7 -7 16 -10 8 -3 12 -2 9 4 -6 10 -25 14 -25 6z"/>
<path d="M6787 2779 c7 -7 15 -10 18 -7 3 3 -2 9 -12 12 -14 6 -15 5 -6 -5z"/>
<path d="M6755 2770 c-4 -6 -10 -8 -14 -6 -4 3 -8 -1 -8 -9 0 -10 4 -12 12 -5
7 5 14 8 17 5 2 -3 5 2 5 10 0 18 -3 19 -12 5z"/>
<path d="M4690 2761 c0 -6 4 -12 8 -15 5 -3 9 1 9 9 0 8 -4 15 -9 15 -4 0 -8
-4 -8 -9z"/>
<path d="M4815 2760 c-3 -5 -1 -10 4 -10 6 0 11 5 11 10 0 6 -2 10 -4 10 -3 0
-8 -4 -11 -10z"/>
<path d="M6586 2725 c-11 -8 -15 -15 -9 -15 6 0 16 7 23 15 16 19 11 19 -14 0z"/>
<path d="M6630 2730 c-11 -7 -11 -10 -2 -10 7 0 10 -5 6 -12 -4 -7 -3 -8 5 -4
6 4 9 11 6 16 -3 4 1 11 7 13 7 3 9 6 3 6 -5 0 -17 -4 -25 -9z"/>
<path d="M4710 2720 c0 -5 5 -10 11 -10 5 0 7 5 4 10 -3 6 -8 10 -11 10 -2 0
-4 -4 -4 -10z"/>
<path d="M6713 2713 c0 -9 4 -10 14 -2 7 6 13 12 13 14 0 1 -6 2 -13 2 -8 0
-14 -6 -14 -14z"/>
<path d="M6755 2721 c-3 -5 -2 -12 3 -15 5 -3 9 1 9 9 0 17 -3 19 -12 6z"/>
<path d="M4770 2700 c0 -5 5 -10 11 -10 5 0 7 5 4 10 -3 6 -8 10 -11 10 -2 0
-4 -4 -4 -10z"/>
<path d="M4695 2691 c-3 -5 -2 -12 3 -15 5 -3 9 1 9 9 0 17 -3 19 -12 6z"/>
<path d="M6590 2693 c5 -2 8 -9 4 -14 -3 -5 0 -9 6 -9 15 0 7 23 -8 26 -7 1
-8 0 -2 -3z"/>
<path d="M4915 2680 c-3 -5 -1 -10 4 -10 6 0 11 5 11 10 0 6 -2 10 -4 10 -3 0
-8 -4 -11 -10z"/>
<path d="M6527 2679 c7 -7 15 -10 18 -7 3 3 -2 9 -12 12 -14 6 -15 5 -6 -5z"/>
<path d="M6710 2686 c0 -2 7 -7 16 -10 8 -3 12 -2 9 4 -6 10 -25 14 -25 6z"/>
<path d="M6496 2662 c-6 -10 5 -26 20 -29 6 -1 11 4 11 12 0 7 -7 11 -15 7
-10 -3 -13 -1 -8 6 4 7 5 12 2 12 -3 0 -7 -4 -10 -8z"/>
<path d="M6558 2662 c-14 -6 -13 -9 6 -24 18 -13 23 -13 23 -3 0 8 -5 11 -10
8 -6 -4 -8 0 -4 10 3 10 5 17 4 16 -1 0 -9 -3 -19 -7z"/>
<path d="M6475 2592 c1 -39 -3 -63 -14 -77 -15 -18 -15 -19 0 -7 9 6 18 10 20
7 3 -2 5 24 4 60 0 35 -3 67 -6 69 -3 3 -5 -20 -4 -52z"/>
<path d="M6540 2626 c0 -2 8 -10 18 -17 15 -13 16 -12 3 4 -13 16 -21 21 -21
13z"/>
<path d="M6630 2618 c0 -4 4 -8 9 -8 6 0 12 4 15 8 3 5 -1 9 -9 9 -8 0 -15 -4
-15 -9z"/>
<path d="M6680 2620 c-12 -7 -10 -9 7 -7 12 0 19 5 17 9 -6 10 -6 10 -24 -2z"/>
<path d="M4754 2600 c0 -13 4 -16 10 -10 7 7 7 13 0 20 -6 6 -10 3 -10 -10z"/>
<path d="M6533 2595 c0 -8 4 -12 9 -9 5 3 6 10 3 15 -9 13 -12 11 -12 -6z"/>
<path d="M4679 2588 c-6 -21 -5 -37 2 -32 5 3 7 9 4 14 -3 4 1 11 7 13 10 4
10 6 1 6 -7 1 -13 0 -14 -1z"/>
<path d="M4699 2553 c-13 -16 -12 -17 4 -4 16 13 21 21 13 21 -2 0 -10 -8 -17
-17z"/>
<path d="M6550 2560 c0 -5 5 -10 11 -10 5 0 7 5 4 10 -3 6 -8 10 -11 10 -2 0
-4 -4 -4 -10z"/>
<path d="M6586 2558 c3 -5 10 -6 15 -3 13 9 11 12 -6 12 -8 0 -12 -4 -9 -9z"/>
<path d="M4775 2540 c-3 -5 -1 -10 4 -10 6 0 11 5 11 10 0 6 -2 10 -4 10 -3 0
-8 -4 -11 -10z"/>
<path d="M6396 2541 c-3 -5 2 -15 12 -22 15 -12 16 -12 5 2 -7 9 -10 19 -6 22
3 4 4 7 0 7 -3 0 -8 -4 -11 -9z"/>
<path d="M6420 2546 c0 -2 8 -10 18 -17 15 -13 16 -12 3 4 -13 16 -21 21 -21
13z"/>
<path d="M4714 2501 c0 -17 4 -31 9 -31 4 0 5 12 3 26 -7 38 -14 40 -12 5z"/>
<path d="M6359 2528 c-5 -18 -6 -38 -1 -34 7 8 12 36 6 36 -2 0 -4 -1 -5 -2z"/>
<path d="M6630 2520 c0 -5 5 -10 11 -10 5 0 7 5 4 10 -3 6 -8 10 -11 10 -2 0
-4 -4 -4 -10z"/>
<path d="M4754 2496 c1 -8 5 -18 8 -22 4 -3 5 1 4 10 -1 8 -5 18 -8 22 -4 3
-5 -1 -4 -10z"/>
<path d="M6575 2500 c-3 -5 -1 -10 4 -10 6 0 11 5 11 10 0 6 -2 10 -4 10 -3 0
-8 -4 -11 -10z"/>
<path d="M6415 2489 c-4 -6 -5 -12 -2 -15 2 -3 7 2 10 11 7 17 1 20 -8 4z"/>
<path d="M6515 2489 c-4 -6 -5 -12 -2 -15 2 -3 7 2 10 11 7 17 1 20 -8 4z"/>
<path d="M4675 2470 c10 -11 20 -20 23 -20 3 0 -3 9 -13 20 -10 11 -20 20 -23
20 -3 0 3 -9 13 -20z"/>
<path d="M4655 2439 c-4 -6 -4 -13 -1 -16 3 -4 6 -1 6 6 0 7 5 9 10 6 6 -4 8
-10 6 -14 -3 -4 1 -8 9 -8 13 0 12 4 -2 19 -19 21 -20 21 -28 7z"/>
<path d="M6290 2419 c0 -5 5 -7 10 -4 6 3 10 8 10 11 0 2 -4 4 -10 4 -5 0 -10
-5 -10 -11z"/>
<path d="M6330 2419 c0 -5 5 -7 10 -4 6 3 10 8 10 11 0 2 -4 4 -10 4 -5 0 -10
-5 -10 -11z"/>
<path d="M6450 2420 c0 -5 5 -10 11 -10 5 0 7 5 4 10 -3 6 -8 10 -11 10 -2 0
-4 -4 -4 -10z"/>
<path d="M6335 2391 c-3 -5 -2 -12 3 -15 5 -3 9 1 9 9 0 17 -3 19 -12 6z"/>
<path d="M6295 2381 c-3 -5 -2 -12 3 -15 5 -3 9 1 9 9 0 17 -3 19 -12 6z"/>
<path d="M4656 2353 c-6 -14 -5 -15 5 -6 7 7 10 15 7 18 -3 3 -9 -2 -12 -12z"/>
<path d="M6390 2360 c0 -5 5 -10 11 -10 5 0 7 5 4 10 -3 6 -8 10 -11 10 -2 0
-4 -4 -4 -10z"/>
<path d="M6430 2359 c0 -5 5 -7 10 -4 6 3 10 8 10 11 0 2 -4 4 -10 4 -5 0 -10
-5 -10 -11z"/>
<path d="M4695 2319 c-3 -4 2 -6 10 -5 21 3 28 13 10 13 -9 0 -18 -4 -20 -8z"/>
<path d="M4680 2275 c-7 -8 -9 -15 -5 -15 5 0 0 -10 -11 -22 l-19 -23 23 19
c12 11 20 21 17 24 -3 3 0 11 6 19 6 7 9 13 6 13 -2 0 -10 -7 -17 -15z"/>
<path d="M6306 2282 c-3 -5 1 -9 9 -9 8 0 12 4 9 9 -3 4 -7 8 -9 8 -2 0 -6 -4
-9 -8z"/>
<path d="M4640 2260 c-9 -6 -10 -10 -3 -10 6 0 15 5 18 10 8 12 4 12 -15 0z"/>
<path d="M6130 2199 c0 -5 5 -7 10 -4 6 3 10 8 10 11 0 2 -4 4 -10 4 -5 0 -10
-5 -10 -11z"/>
<path d="M6186 2198 c3 -5 10 -6 15 -3 13 9 11 12 -6 12 -8 0 -12 -4 -9 -9z"/>
<path d="M4615 2179 c-4 -6 -5 -12 -2 -15 2 -3 7 2 10 11 7 17 1 20 -8 4z"/>
<path d="M4631 2167 c2 -1 13 -9 24 -17 19 -14 19 -14 6 3 -7 9 -18 17 -24 17
-6 0 -8 -1 -6 -3z"/>
<path d="M4646 2118 c3 -5 10 -6 15 -3 13 9 11 12 -6 12 -8 0 -12 -4 -9 -9z"/>
<path d="M4644 2078 c-12 -14 -13 -18 -3 -10 9 6 18 10 21 7 2 -3 5 2 5 10 0
19 0 19 -23 -7z"/>
<path d="M4618 2048 c5 -5 16 -8 23 -6 8 3 3 7 -10 11 -17 4 -21 3 -13 -5z"/>
<path d="M4625 2019 c-3 -4 2 -6 10 -5 21 3 28 13 10 13 -9 0 -18 -4 -20 -8z"/>
<path d="M4673 2005 c0 -8 4 -12 9 -9 5 3 6 10 3 15 -9 13 -12 11 -12 -6z"/>
<path d="M4632 1971 c7 -9 13 -18 15 -20 1 -2 1 5 0 16 0 11 -7 20 -14 20 -10
0 -10 -4 -1 -16z"/>
<path d="M4695 1980 c3 -5 8 -10 11 -10 2 0 4 5 4 10 0 6 -5 10 -11 10 -5 0
-7 -4 -4 -10z"/>
<path d="M4613 1955 c0 -8 4 -12 9 -9 5 3 6 10 3 15 -9 13 -12 11 -12 -6z"/>
<path d="M4596 1918 c3 -5 10 -6 15 -3 13 9 11 12 -6 12 -8 0 -12 -4 -9 -9z"/>
<path d="M4675 1900 c-3 -5 -1 -10 4 -10 6 0 11 5 11 10 0 6 -2 10 -4 10 -3 0
-8 -4 -11 -10z"/>
<path d="M4585 1799 c-11 -16 -1 -19 13 -3 7 8 8 14 3 14 -5 0 -13 -5 -16 -11z"/>
<path d="M4650 1780 c0 -5 5 -10 11 -10 5 0 7 5 4 10 -3 6 -8 10 -11 10 -2 0
-4 -4 -4 -10z"/>
<path d="M4576 1753 c-6 -14 -5 -15 5 -6 7 7 10 15 7 18 -3 3 -9 -2 -12 -12z"/>
<path d="M4640 1740 c-12 -7 -10 -9 7 -7 12 0 19 5 17 9 -6 10 -6 10 -24 -2z"/>
<path d="M4588 1703 c7 -3 16 -2 19 1 4 3 -2 6 -13 5 -11 0 -14 -3 -6 -6z"/>
<path d="M4564 1634 c-18 -14 -18 -15 4 -4 12 6 22 13 22 15 0 8 -5 6 -26 -11z"/>
<path d="M4575 1609 c-4 -6 -14 -8 -23 -4 -13 5 -12 2 3 -15 19 -21 30 -27 20
-10 -4 6 -1 17 5 25 7 8 10 15 7 15 -3 0 -9 -5 -12 -11z"/>
<path d="M4596 1593 c-6 -14 -5 -15 5 -6 7 7 10 15 7 18 -3 3 -9 -2 -12 -12z"/>
<path d="M4653 1575 c0 -8 4 -12 9 -9 5 3 6 10 3 15 -9 13 -12 11 -12 -6z"/>
<path d="M4593 1489 c-2 -23 3 -25 10 -4 4 8 3 16 -1 19 -4 3 -9 -4 -9 -15z"/>
<path d="M4500 1440 c0 -5 7 -7 15 -4 8 4 15 8 15 10 0 2 -7 4 -15 4 -8 0 -15
-4 -15 -10z"/>
<path d="M4470 1420 c0 -5 5 -10 10 -10 6 0 10 5 10 10 0 6 -4 10 -10 10 -5 0
-10 -4 -10 -10z"/>
<path d="M4546 1418 c3 -5 10 -6 15 -3 13 9 11 12 -6 12 -8 0 -12 -4 -9 -9z"/>
<path d="M4570 1380 c0 -5 5 -10 11 -10 5 0 7 5 4 10 -3 6 -8 10 -11 10 -2 0
-4 -4 -4 -10z"/>
<path d="M4460 1371 c0 -6 4 -13 10 -16 6 -3 7 1 4 9 -7 18 -14 21 -14 7z"/>
<path d="M4495 1359 c-4 -6 -4 -13 -1 -16 3 -4 6 -1 6 7 0 10 4 10 18 -1 15
-13 16 -12 3 4 -16 20 -18 20 -26 6z"/>
<path d="M4410 1340 c0 -5 5 -10 11 -10 5 0 7 5 4 10 -3 6 -8 10 -11 10 -2 0
-4 -4 -4 -10z"/>
<path d="M4566 1342 c-3 -5 1 -9 9 -9 8 0 12 4 9 9 -3 4 -7 8 -9 8 -2 0 -6 -4
-9 -8z"/>
<path d="M4450 1330 c-11 -7 -11 -10 -2 -10 7 0 10 -4 7 -10 -4 -6 1 -7 11 -3
10 4 15 2 11 -4 -3 -5 1 -10 10 -10 13 0 12 4 -5 17 -12 10 -18 20 -15 24 9 9
0 7 -17 -4z"/>
<path d="M4513 1315 c0 -8 4 -12 9 -9 5 3 6 10 3 15 -9 13 -12 11 -12 -6z"/>
<path d="M4380 1279 c-12 -9 -12 -10 4 -5 13 4 17 2 13 -7 -3 -8 1 -14 8 -14
10 0 11 5 4 19 -11 21 -10 21 -29 7z"/>
<path d="M4424 1278 c-4 -7 -3 -8 5 -4 6 4 20 2 29 -6 15 -12 16 -11 3 5 -16
20 -27 22 -37 5z"/>
<path d="M4333 1248 c5 -17 30 -17 33 0 1 7 0 8 -3 2 -2 -5 -9 -10 -14 -10 -6
0 -7 5 -4 10 3 6 1 10 -5 10 -7 0 -10 -6 -7 -12z"/>
<path d="M4426 1242 c-3 -5 1 -9 9 -9 8 0 15 4 15 9 0 4 -4 8 -9 8 -6 0 -12
-4 -15 -8z"/>
<path d="M4390 1229 c0 -5 5 -7 10 -4 6 3 10 8 10 11 0 2 -4 4 -10 4 -5 0 -10
-5 -10 -11z"/>
<path d="M4310 1220 c0 -5 5 -10 10 -10 6 0 10 5 10 10 0 6 -4 10 -10 10 -5 0
-10 -4 -10 -10z"/>
<path d="M4341 1206 c3 -3 15 -7 28 -9 12 -2 27 -10 32 -18 5 -9 9 -10 9 -2 0
6 -6 15 -12 20 -15 9 -65 17 -57 9z"/>
<path d="M4495 1191 c-3 -5 -2 -12 3 -15 5 -3 9 1 9 9 0 17 -3 19 -12 6z"/>
<path d="M4270 1168 c0 -6 -3 -8 -7 -5 -10 11 -43 -24 -43 -45 0 -11 -5 -16
-11 -13 -6 4 -8 14 -4 24 5 12 4 13 -6 4 -10 -10 -9 -15 1 -27 15 -19 30 -12
30 13 0 9 5 22 11 28 14 14 42 5 32 -10 -3 -5 -1 -7 5 -4 5 4 8 16 5 27 -6 22
-13 27 -13 8z"/>
<path d="M4350 1170 c-8 -5 -12 -12 -9 -15 4 -3 12 1 19 10 14 17 11 19 -10 5z"/>
<path d="M4457 1155 c-4 -8 -3 -16 1 -19 4 -3 9 4 9 15 2 23 -3 25 -10 4z"/>
<path d="M4316 1151 c-3 -5 1 -11 9 -14 9 -4 12 -1 8 9 -6 16 -10 17 -17 5z"/>
<path d="M4360 1140 c-9 -6 -10 -10 -3 -10 6 0 15 5 18 10 8 12 4 12 -15 0z"/>
<path d="M4246 1123 c-6 -14 -5 -15 5 -6 7 7 10 15 7 18 -3 3 -9 -2 -12 -12z"/>
<path d="M4280 1115 c-19 -22 -8 -25 13 -3 9 10 13 18 8 18 -5 0 -14 -7 -21
-15z"/>
<path d="M4396 1118 c3 -5 10 -6 15 -3 13 9 11 12 -6 12 -8 0 -12 -4 -9 -9z"/>
<path d="M4170 1101 c0 -5 7 -12 16 -15 14 -5 15 -4 4 9 -14 17 -20 19 -20 6z"/>
<path d="M4296 1102 c-3 -4 4 -9 15 -9 23 -2 25 3 4 10 -8 4 -16 3 -19 -1z"/>
<path d="M4150 1070 c0 -5 7 -7 15 -4 8 4 15 8 15 10 0 2 -7 4 -15 4 -8 0 -15
-4 -15 -10z"/>
<path d="M4210 1071 c0 -6 4 -13 10 -16 6 -3 7 1 4 9 -7 18 -14 21 -14 7z"/>
<path d="M4193 1046 c0 -14 6 -27 14 -30 9 -4 11 -2 6 7 -4 6 -8 18 -9 25 -4
25 -11 23 -11 -2z"/>
<path d="M4110 1050 c-8 -5 -10 -10 -5 -10 6 0 17 5 25 10 8 5 11 10 5 10 -5
0 -17 -5 -25 -10z"/>
<path d="M4080 1042 c0 -5 7 -15 15 -22 8 -7 15 -9 15 -6 0 4 -7 14 -15 22 -8
9 -15 11 -15 6z"/>
<path d="M4140 1040 c-18 -12 -2 -12 25 0 13 6 15 9 5 9 -8 0 -22 -4 -30 -9z"/>
<path d="M1996 1022 c-2 -4 -1 -14 4 -22 7 -11 9 -9 7 8 -1 24 -3 26 -11 14z"/>
<path d="M4112 1004 c-7 -8 -8 -14 -3 -14 10 0 25 19 20 25 -2 1 -10 -3 -17
-11z"/>
<path d="M4153 1002 c1 -14 5 -18 11 -12 7 7 6 14 -1 21 -9 9 -12 7 -10 -9z"/>
<path d="M4040 1000 c0 -5 5 -10 10 -10 6 0 10 5 10 10 0 6 -4 10 -10 10 -5 0
-10 -4 -10 -10z"/>
<path d="M4015 990 c-3 -6 1 -13 9 -16 9 -3 13 -10 10 -15 -3 -5 2 -6 12 -2
14 5 14 7 -5 18 -12 6 -18 14 -15 18 4 4 5 7 1 7 -3 0 -9 -5 -12 -10z"/>
<path d="M4070 980 c0 -5 5 -10 10 -10 6 0 10 5 10 10 0 6 -4 10 -10 10 -5 0
-10 -4 -10 -10z"/>
<path d="M4191 974 c6 -7 7 -19 3 -25 -4 -7 -3 -9 4 -5 15 9 11 43 -5 43 -9 0
-10 -4 -2 -13z"/>
<path d="M4229 977 c6 -8 7 -18 3 -22 -4 -5 -1 -5 6 -1 10 6 10 11 1 22 -6 8
-14 14 -16 14 -3 0 0 -6 6 -13z"/>
<path d="M4104 955 c-18 -14 -18 -14 4 -8 12 3 22 9 22 14 0 12 -3 11 -26 -6z"/>
<path d="M4330 966 c0 -2 7 -7 16 -10 8 -3 12 -2 9 4 -6 10 -25 14 -25 6z"/>
<path d="M3940 935 c10 -12 10 -18 0 -30 -9 -10 -9 -15 -1 -15 6 0 11 4 11 10
0 5 6 7 14 4 8 -3 12 -15 10 -27 -4 -21 -4 -21 5 -2 6 15 5 23 -7 33 -9 6 -12
12 -8 12 4 0 1 7 -8 15 -8 8 -18 15 -22 15 -3 0 -1 -7 6 -15z"/>
<path d="M3990 939 c-12 -8 -10 -9 9 -4 17 5 22 4 16 -5 -5 -9 -4 -11 4 -6 6
4 9 12 6 17 -8 12 -16 11 -35 -2z"/>
<path d="M4129 924 c-11 -14 -24 -52 -14 -42 2 1 3 6 2 9 -1 4 7 16 17 28 11
12 17 21 14 21 -3 0 -12 -7 -19 -16z"/>
<path d="M3886 915 c-9 -7 -16 -16 -16 -20 0 -5 9 0 20 10 12 11 20 13 20 6 0
-7 5 -9 10 -6 6 3 10 10 10 14 0 12 -25 9 -44 -4z"/>
<path d="M4035 920 c-3 -5 -2 -10 4 -10 5 0 13 5 16 10 3 6 2 10 -4 10 -5 0
-13 -4 -16 -10z"/>
<path d="M4186 918 c3 -5 10 -6 15 -3 13 9 11 12 -6 12 -8 0 -12 -4 -9 -9z"/>
<path d="M2035 899 c-3 -4 2 -6 10 -5 21 3 28 13 10 13 -9 0 -18 -4 -20 -8z"/>
<path d="M2180 906 c0 -2 8 -10 18 -17 15 -13 16 -12 3 4 -13 16 -21 21 -21
13z"/>
<path d="M4076 898 c3 -5 10 -6 15 -3 13 9 11 12 -6 12 -8 0 -12 -4 -9 -9z"/>
<path d="M4150 900 c0 -5 5 -10 11 -10 5 0 7 5 4 10 -3 6 -8 10 -11 10 -2 0
-4 -4 -4 -10z"/>
<path d="M3850 892 c0 -18 26 -25 47 -12 16 9 15 10 -6 4 -15 -4 -27 -1 -32 7
-7 11 -9 11 -9 1z"/>
<path d="M4011 891 c-19 -12 -22 -38 -5 -38 10 0 11 4 5 10 -7 7 -5 15 7 23
19 15 14 18 -7 5z"/>
<path d="M4050 896 c0 -2 8 -10 18 -17 15 -13 16 -12 3 4 -13 16 -21 21 -21
13z"/>
<path d="M3907 868 c-13 -10 -14 -17 -6 -28 9 -13 10 -12 5 3 -3 9 -4 17 -2
17 3 0 12 3 22 7 13 5 15 3 9 -7 -5 -9 -4 -11 4 -6 11 7 6 26 -8 26 -4 0 -15
-6 -24 -12z"/>
<path d="M2302 844 c10 -10 20 -15 24 -12 3 4 -5 12 -18 18 -22 12 -22 12 -6
-6z"/>
<path d="M2226 838 c3 -5 10 -6 15 -3 13 9 11 12 -6 12 -8 0 -12 -4 -9 -9z"/>
<path d="M3795 839 c-11 -16 -1 -19 13 -3 7 8 8 14 3 14 -5 0 -13 -5 -16 -11z"/>
<path d="M3860 838 c0 -6 3 -8 7 -5 3 4 12 -1 20 -11 13 -15 13 -15 3 6 -11
23 -30 30 -30 10z"/>
<path d="M3950 841 c0 -6 4 -12 8 -15 5 -3 9 1 9 9 0 8 -4 15 -9 15 -4 0 -8
-4 -8 -9z"/>
<path d="M3836 827 c3 -10 9 -15 12 -12 3 3 0 11 -7 18 -10 9 -11 8 -5 -6z"/>
<path d="M3700 810 c-6 -11 -7 -20 -3 -21 4 0 -1 -5 -12 -10 -17 -7 -17 -8 -2
-6 10 1 18 7 19 12 0 6 4 18 9 28 5 9 7 17 5 17 -3 0 -10 -9 -16 -20z"/>
<path d="M3814 822 c3 -5 0 -13 -6 -15 -9 -4 -10 -6 -1 -6 17 -1 25 16 12 25
-7 4 -9 3 -5 -4z"/>
<path d="M3655 811 c-6 -11 13 -26 22 -17 4 3 1 6 -6 6 -7 0 -9 5 -6 10 3 6 4
10 1 10 -3 0 -7 -4 -11 -9z"/>
<path d="M3935 810 c-4 -6 -11 -8 -16 -5 -5 4 -9 2 -9 -4 0 -5 8 -9 18 -8 10
0 19 7 19 14 0 16 -4 16 -12 3z"/>
<path d="M2196 802 c-3 -5 1 -9 9 -9 8 0 12 4 9 9 -3 4 -7 8 -9 8 -2 0 -6 -4
-9 -8z"/>
<path d="M2356 802 c-3 -5 1 -9 9 -9 8 0 12 4 9 9 -3 4 -7 8 -9 8 -2 0 -6 -4
-9 -8z"/>
<path d="M3721 794 c0 -11 3 -14 6 -6 3 7 2 16 -1 19 -3 4 -6 -2 -5 -13z"/>
<path d="M3740 805 c0 -8 29 -12 39 -5 9 5 4 8 -13 8 -14 0 -26 -2 -26 -3z"/>
<path d="M3857 796 c-4 -10 -1 -13 8 -9 8 3 12 9 9 14 -7 12 -11 11 -17 -5z"/>
<path d="M4010 799 c0 -5 5 -7 10 -4 6 3 10 8 10 11 0 2 -4 4 -10 4 -5 0 -10
-5 -10 -11z"/>
<path d="M3595 776 c-18 -13 -17 -14 6 -25 22 -11 22 -11 6 2 -15 12 -15 16
-3 20 8 3 17 1 20 -6 3 -9 5 -9 5 0 1 19 -15 23 -34 9z"/>
<path d="M3775 780 c-3 -6 1 -7 9 -4 18 7 21 14 7 14 -6 0 -13 -4 -16 -10z"/>
<path d="M2374 760 c0 -13 4 -16 10 -10 7 7 7 13 0 20 -6 6 -10 3 -10 -10z"/>
<path d="M2494 769 c1 -7 10 -13 19 -15 9 -1 15 2 11 7 -3 5 -9 7 -14 4 -4 -3
-11 0 -13 5 -3 6 -4 5 -3 -1z"/>
<path d="M3540 774 c0 -5 7 -19 15 -30 8 -10 15 -15 15 -10 0 6 6 1 14 -10 13
-16 17 -17 28 -5 11 12 11 13 0 6 -8 -4 -19 0 -27 11 -8 11 -15 15 -15 9 0 -5
-7 1 -15 15 -8 14 -14 20 -15 14z"/>
<path d="M3510 761 c0 -5 5 -13 10 -16 6 -3 10 -2 10 4 0 5 -4 13 -10 16 -5 3
-10 2 -10 -4z"/>
<path d="M3730 762 c0 -5 7 -9 15 -9 8 0 12 4 9 9 -3 4 -9 8 -15 8 -5 0 -9 -4
-9 -8z"/>
<path d="M2290 746 c0 -2 7 -7 16 -10 8 -3 12 -2 9 4 -6 10 -25 14 -25 6z"/>
<path d="M3472 738 c-7 -9 -6 -18 4 -32 8 -11 14 -15 14 -9 0 7 -5 15 -10 18
-6 4 -8 11 -5 16 9 13 26 11 23 -2 -2 -6 4 -14 12 -16 12 -4 12 -3 2 5 -8 5
-13 13 -12 18 3 14 -16 16 -28 2z"/>
<path d="M3630 740 c0 -6 7 -10 15 -10 8 0 15 2 15 4 0 2 -7 6 -15 10 -8 3
-15 1 -15 -4z"/>
<path d="M3694 738 c-4 -7 -3 -8 4 -4 7 4 12 1 12 -8 0 -9 4 -16 8 -16 5 0 9
7 9 15 0 18 -24 28 -33 13z"/>
<path d="M2190 736 c0 -2 8 -10 18 -17 15 -13 16 -12 3 4 -13 16 -21 21 -21
13z"/>
<path d="M2495 730 c-4 -6 -10 -8 -14 -6 -4 3 -8 -1 -8 -9 0 -10 4 -12 12 -5
7 5 14 8 17 5 2 -3 5 2 5 10 0 18 -3 19 -12 5z"/>
<path d="M2543 724 c9 -11 15 -23 12 -26 -3 -2 2 -5 10 -5 10 0 12 4 5 12 -5
7 -6 16 -2 21 4 5 3 6 -2 2 -5 -4 -16 -2 -25 4 -12 10 -12 7 2 -8z"/>
<path d="M3435 730 c-3 -5 -1 -10 4 -10 6 0 11 5 11 10 0 6 -2 10 -4 10 -3 0
-8 -4 -11 -10z"/>
<path d="M2375 720 c-3 -5 -1 -10 4 -10 6 0 11 5 11 10 0 6 -2 10 -4 10 -3 0
-8 -4 -11 -10z"/>
<path d="M2586 718 c3 -5 10 -6 15 -3 13 9 11 12 -6 12 -8 0 -12 -4 -9 -9z"/>
<path d="M2708 723 c6 -2 18 -2 25 0 6 3 1 5 -13 5 -14 0 -19 -2 -12 -5z"/>
<path d="M3341 713 c-5 -10 -13 -17 -18 -15 -4 2 -9 -2 -11 -10 -3 -11 -2 -11
6 0 5 8 12 13 16 12 4 0 14 6 22 15 9 8 11 15 5 15 -5 0 -14 -8 -20 -17z"/>
<path d="M3530 720 c0 -5 5 -10 10 -10 6 0 10 5 10 10 0 6 -4 10 -10 10 -5 0
-10 -4 -10 -10z"/>
<path d="M3670 723 c0 -6 8 -17 18 -24 16 -13 16 -13 2 6 -8 11 -16 22 -17 24
-2 2 -3 0 -3 -6z"/>
<path d="M3766 718 c3 -5 10 -6 15 -3 13 9 11 12 -6 12 -8 0 -12 -4 -9 -9z"/>
<path d="M2413 705 c0 -8 4 -12 9 -9 5 3 6 10 3 15 -9 13 -12 11 -12 -6z"/>
<path d="M2640 711 c0 -6 4 -13 10 -16 6 -3 7 1 4 9 -7 18 -14 21 -14 7z"/>
<path d="M3388 713 c7 -3 16 -2 19 1 4 3 -2 6 -13 5 -11 0 -14 -3 -6 -6z"/>
<path d="M2875 699 c-3 -4 2 -6 10 -5 21 3 28 13 10 13 -9 0 -18 -4 -20 -8z"/>
<path d="M3013 697 c0 -7 9 -13 19 -13 10 0 18 1 18 3 0 1 -8 7 -18 12 -13 7
-19 6 -19 -2z"/>
<path d="M3060 696 c7 -7 13 -7 20 0 6 6 3 10 -10 10 -13 0 -16 -4 -10 -10z"/>
<path d="M3366 697 c4 -12 2 -17 -6 -15 -7 2 -15 -4 -17 -12 -4 -13 -3 -13 6
0 6 8 11 11 11 6 0 -6 5 -5 12 2 9 9 9 15 -1 25 -10 10 -11 8 -5 -6z"/>
<path d="M3416 702 c-3 -4 0 -14 6 -22 8 -12 9 -12 5 2 -7 20 30 21 37 1 3 -7
10 -13 16 -13 17 0 -20 34 -41 37 -10 1 -20 -1 -23 -5z"/>
<path d="M3556 702 c-6 -10 5 -26 20 -29 6 -1 11 4 11 12 0 7 -7 11 -15 7 -10
-3 -13 -1 -8 6 4 7 5 12 2 12 -3 0 -7 -4 -10 -8z"/>
<path d="M3637 697 c4 -7 -1 -8 -13 -3 -15 6 -17 5 -6 -5 10 -11 15 -10 28 2
13 14 13 16 0 16 -8 0 -12 -5 -9 -10z"/>
<path d="M2673 685 c0 -8 4 -12 9 -9 5 3 6 10 3 15 -9 13 -12 11 -12 -6z"/>
<path d="M2828 693 c6 -2 18 -2 25 0 6 3 1 5 -13 5 -14 0 -19 -2 -12 -5z"/>
<path d="M3281 683 c-1 -25 14 -39 25 -22 4 7 3 9 -4 5 -6 -3 -12 3 -15 16 -4
23 -4 23 -6 1z"/>
<path d="M3510 690 c-9 -6 -10 -10 -3 -10 6 0 15 5 18 10 8 12 4 12 -15 0z"/>
<path d="M2790 680 c0 -5 5 -10 10 -10 6 0 10 5 10 10 0 6 -4 10 -10 10 -5 0
-10 -4 -10 -10z"/>
<path d="M2930 680 c0 -5 3 -9 8 -8 4 1 18 -4 32 -11 l25 -12 -25 20 c-28 23
-40 26 -40 11z"/>
<path d="M2986 675 c10 -8 23 -15 28 -15 6 0 1 7 -10 15 -10 8 -23 15 -28 15
-6 0 -1 -7 10 -15z"/>
<path d="M3079 673 c-13 -17 -13 -17 6 -3 11 8 22 16 24 17 2 2 0 3 -6 3 -6 0
-17 -8 -24 -17z"/>
<path d="M3130 680 c0 -5 5 -10 10 -10 6 0 10 5 10 10 0 6 -4 10 -10 10 -5 0
-10 -4 -10 -10z"/>
<path d="M3170 679 c0 -5 4 -8 9 -4 6 3 14 -3 20 -12 6 -10 11 -13 11 -7 0 12
-20 34 -32 34 -4 0 -8 -5 -8 -11z"/>
<path d="M3675 671 c-3 -5 -2 -12 3 -15 5 -3 9 1 9 9 0 17 -3 19 -12 6z"/>
<path d="M3735 671 c-3 -5 -2 -12 3 -15 5 -3 9 1 9 9 0 17 -3 19 -12 6z"/>
<path d="M3773 665 c0 -8 4 -12 9 -9 5 3 6 10 3 15 -9 13 -12 11 -12 -6z"/>
<path d="M2690 665 c0 -5 5 -17 10 -25 5 -8 10 -10 10 -5 0 6 -5 17 -10 25 -5
8 -10 11 -10 5z"/>
<path d="M2755 662 c3 -3 -1 -12 -7 -21 -8 -10 -4 -9 10 3 26 23 26 23 7 23
-8 0 -13 -3 -10 -5z"/>
<path d="M2831 653 c6 -7 7 -18 3 -24 -4 -7 -3 -9 3 -6 20 12 21 43 2 43 -13
0 -15 -4 -8 -13z"/>
<path d="M3038 663 c7 -3 16 -2 19 1 4 3 -2 6 -13 5 -11 0 -14 -3 -6 -6z"/>
<path d="M3122 645 c12 -14 23 -25 25 -25 2 0 -4 11 -13 25 -9 14 -20 25 -25
25 -5 0 1 -11 13 -25z"/>
<path d="M3259 668 c-8 -27 -5 -36 9 -30 10 4 12 7 4 10 -7 2 -10 8 -6 13 3 5
3 9 0 9 -3 0 -6 -1 -7 -2z"/>
<path d="M3316 655 c-9 -26 -7 -32 5 -12 6 10 9 21 6 23 -2 3 -7 -2 -11 -11z"/>
<path d="M2910 645 c0 -8 2 -15 4 -15 2 0 6 7 10 15 3 8 1 15 -4 15 -6 0 -10
-7 -10 -15z"/>
<path d="M3160 655 c0 -5 5 -17 10 -25 5 -8 10 -10 10 -5 0 6 -5 17 -10 25 -5
8 -10 11 -10 5z"/>
<path d="M3564 638 l-19 -23 23 19 c21 18 27 26 19 26 -2 0 -12 -10 -23 -22z"/>
<path d="M2650 639 c0 -5 5 -7 10 -4 6 3 10 8 10 11 0 2 -4 4 -10 4 -5 0 -10
-5 -10 -11z"/>
<path d="M2956 642 c-3 -5 1 -9 9 -9 8 0 12 4 9 9 -3 4 -7 8 -9 8 -2 0 -6 -4
-9 -8z"/>
<path d="M3001 636 c-9 -11 -9 -16 0 -22 7 -4 9 -3 5 4 -3 6 2 15 11 21 10 6
13 11 7 11 -6 0 -17 -6 -23 -14z"/>
<path d="M3064 638 c9 -5 23 -5 32 0 12 6 7 9 -16 9 -23 0 -28 -3 -16 -9z"/>
<path d="M3377 638 c-3 -8 5 -14 20 -14 13 -1 23 -1 21 0 -2 1 -10 7 -19 14
-13 10 -18 10 -22 0z"/>
<path d="M3441 636 c-9 -11 -9 -16 1 -22 7 -4 10 -4 6 1 -4 4 -3 14 3 22 6 7
9 13 6 13 -2 0 -10 -6 -16 -14z"/>
<path d="M2555 629 c-4 -6 -5 -12 -2 -15 2 -3 7 2 10 11 7 17 1 20 -8 4z"/>
<path d="M2870 622 c0 -5 7 -9 15 -9 8 0 12 4 9 9 -3 4 -9 8 -15 8 -5 0 -9 -4
-9 -8z"/>
<path d="M3233 595 c0 -8 4 -12 9 -9 4 3 8 9 8 15 0 5 -4 9 -8 9 -5 0 -9 -7
-9 -15z"/>
<path d="M3374 602 c4 -3 14 -7 22 -8 9 -1 13 0 10 4 -4 3 -14 7 -22 8 -9 1
-13 0 -10 -4z"/>
<path d="M3470 596 c7 -7 13 -7 20 0 6 6 3 10 -10 10 -13 0 -16 -4 -10 -10z"/>
<path d="M2815 580 c3 -5 8 -10 11 -10 2 0 4 5 4 10 0 6 -5 10 -11 10 -5 0 -7
-4 -4 -10z"/>
<path d="M3150 582 c0 -5 7 -9 15 -9 8 0 12 4 9 9 -3 4 -9 8 -15 8 -5 0 -9 -4
-9 -8z"/>
<path d="M3525 580 c-3 -6 1 -7 9 -4 18 7 21 14 7 14 -6 0 -13 -4 -16 -10z"/>
<path d="M3470 561 c0 -6 4 -13 10 -16 6 -3 7 1 4 9 -7 18 -14 21 -14 7z"/>
<path d="M2975 539 c-3 -4 2 -6 10 -5 21 3 28 13 10 13 -9 0 -18 -4 -20 -8z"/>
<path d="M3076 538 c3 -4 11 -5 19 -1 21 7 19 12 -4 10 -11 0 -18 -5 -15 -9z"/>
<path d="M3205 540 c-3 -6 1 -7 9 -4 18 7 21 14 7 14 -6 0 -13 -4 -16 -10z"/>
<path d="M3190 486 c0 -2 7 -7 16 -10 8 -3 12 -2 9 4 -6 10 -25 14 -25 6z"/>
</g>
</svg>
